<?xml version="1.0" encoding="UTF-8"?>
<svg width="98px" height="23px" viewBox="0 0 98 23" version="1.1" xmlns="http://www.w3.org/2000/svg" xmlns:xlink="http://www.w3.org/1999/xlink">
    <!-- Generator: Sketch 48.2 (47327) - http://www.bohemiancoding.com/sketch -->
    <title>Catapult</title>
    <desc>Created with Sketch.</desc>
    <defs></defs>
    <g id="web5" stroke="none" stroke-width="1" fill="none" fill-rule="evenodd" transform="translate(-411.000000, -609.000000)">
        <g id="Group-5" transform="translate(411.000000, 557.000000)" fill="#FFFFFF">
            <g id="Page-1" transform="translate(0.000000, 45.000000)">
                <g id="Catapult" transform="translate(0.000000, 7.000000)">
                    <path d="M96.1722709,0 C96.1943199,0.0241986721 96.2112808,0.0622251567 96.236722,0.0674105864 C96.9931749,0.238529767 97.5885,0.592867465 97.8106868,1.36895345 C98.0922365,2.35937053 98.1058052,3.34114522 97.5325292,4.23822456 C97.1933127,4.76886687 96.6183406,4.97974101 95.9873978,4.99184035 C95.0935622,5.00739664 94.1997266,5.01949597 93.3092831,4.9883834 C92.8581251,4.97109863 92.732615,5.10937676 92.7343111,5.54495285 C92.7495758,10.0943032 92.7444876,14.645382 92.7427915,19.1964608 C92.7427915,19.479931 92.7563602,19.7685866 92.7020855,20.0434144 C92.4731143,21.1980367 91.8133381,21.8272022 90.5684134,21.9689373 C90.0154904,22.0328909 89.4235575,21.9965929 88.8825071,21.8738711 C87.7393473,21.6111426 87.1457184,20.7520898 87.1372379,19.4090635 C87.118581,16.7800506 87.1270615,14.1493092 87.1270615,11.5202964 C87.1270615,9.53600527 87.1270615,7.55171416 87.1270615,5.56742305 L87.1270615,5.00048273 C86.3655203,5.00048273 85.6565577,5.00221121 84.9475951,5.00048273 C84.5897216,5.00048273 84.2318482,5.00566816 83.8756708,4.99184035 C83.0208451,4.96418472 82.2830491,4.49922453 82.1151369,3.69375444 C81.974362,3.0179201 81.974362,2.29023146 82.0523818,1.60056931 C82.1456664,0.765715123 82.7155502,0.267913869 83.5771602,0.103708595 C83.6517879,0.0898807819 83.7196312,0.0362980081 83.7908666,0 L96.1722709,0 Z" id="Fill-18"></path>
                    <path d="M0,16.7736356 C0.104541157,16.3911086 0.193906985,16.0014978 0.313623471,15.6242836 C1.62544638,11.4873248 6.25054951,11.269497 8.37678175,13.0865003 C8.80506327,13.4530886 9.10519756,13.8958282 8.9652473,14.4767026 C8.82361089,15.0646608 8.50155668,15.5339647 7.8692513,15.7163735 C7.3886992,15.8545082 7.03629433,15.6313675 6.68726176,15.3480141 C5.77842815,14.6112954 4.64702305,14.5351442 3.92366569,15.2630081 C3.56957467,15.6207417 3.31159407,16.1360906 3.17164382,16.6248751 C2.94401388,17.4253483 2.98110913,18.2541568 3.37903998,19.0227528 C3.97593627,20.1703338 5.26921155,20.4873353 6.33485689,19.7559295 C6.44277034,19.6833202 6.54056691,19.5983142 6.64679422,19.523934 C7.38701305,19.0050432 8.00920155,19.0687977 8.562258,19.7205104 C9.08327764,20.333262 9.02257632,21.1160256 8.41556315,21.7092966 C6.31799542,23.7653793 1.54956973,23.6042221 0.313623471,19.4708052 C0.200651576,19.0918201 0.104541157,18.7057512 0,18.3232242 L0,16.7736356 Z" id="Fill-20"></path>
                    <path d="M68.0208966,9.56166518 C68.0208966,7.84950359 68.017452,6.13734199 68.0243411,4.42345616 C68.0260634,4.11137031 68.0518975,3.79411177 68.1207883,3.49064707 C68.2792373,2.77164266 68.7115275,2.23713098 69.4917166,2.10781364 C70.065233,2.01125669 70.6783617,1.95952975 71.2518782,2.03884439 C72.4058002,2.19747366 72.9655385,2.87682076 72.9758721,4.15275186 C73.0051507,7.49948465 73.0120398,10.8462174 72.9724276,14.1929502 C72.9569271,15.525781 72.7416432,16.8430936 72.1836271,18.091437 C71.1915987,20.3019014 69.3711576,21.4743787 66.9496436,21.8416399 C65.4461005,22.0692384 63.9270569,22.0675142 62.4338474,21.7312891 C59.5610983,21.0847024 57.9059953,19.2932262 57.3221452,16.5948043 C57.1206394,15.6637195 57.0345258,14.69815 57.0207476,13.7463743 C56.9845799,10.9341532 57.0052472,8.12193212 57.0121363,5.30798677 C57.0138585,4.19413341 57.4513155,3.48892284 58.4192322,3.30787856 C59.0943627,3.18200969 59.8349395,3.18028545 60.5083477,3.3044301 C61.4435412,3.47512899 61.9171659,4.16654571 61.9223327,5.15280597 C61.9361109,8.12193212 61.9068323,11.0927825 61.9516113,14.0619087 C61.961945,14.7860858 62.120394,15.525781 62.3339556,16.2240946 C62.6474091,17.2448395 63.6153257,17.8948746 64.6917455,17.9397047 C66.1556764,18.001777 67.1511494,17.5448557 67.5748282,16.4223812 C67.8469472,15.7033768 67.9692284,14.9033335 68.0019516,14.1343264 C68.0656757,12.6118302 68.0208966,11.0858856 68.0208966,9.56166518" id="Fill-22"></path>
                    <path d="M47.5995919,9.49087757 L47.5995919,14.5053793 C48.8330794,14.5141459 50.135864,14.6929848 50.8912019,13.5235188 C51.4992835,12.5837381 51.5044808,11.4738851 50.8929343,10.5235844 C50.1427937,9.35587176 48.8469388,9.50841079 47.5995919,9.49087757 Z M43,14.493106 C43,12.5591915 43,10.6270304 43.0017324,8.69486926 C43.0017324,8.42310431 43.0051973,8.15133936 43.0190567,7.88132773 C43.0779592,6.7066018 43.7345488,5.99650628 44.9420499,6.00001293 C46.8927619,6.00351957 48.8607982,5.97371309 50.7907212,6.1946317 C53.6492246,6.52074964 55.6882904,8.1706259 55.9620137,11.2266666 C56.0642269,12.3803527 55.9689434,13.491959 55.5687529,14.5684989 C54.8220772,16.5778062 53.2230477,17.605253 51.1094876,17.9068245 C50.1514558,18.0435836 49.1622404,18.0137771 48.1868844,18.0190371 C47.7936236,18.0207904 47.6654241,18.1347564 47.6758186,18.513474 C47.7000726,19.3270155 47.689678,20.1423104 47.6810159,20.9576052 C47.6671565,22.1884375 47.1006531,22.8248934 45.8394467,22.9739258 C45.4513832,23.0212655 45.0407982,23.001979 44.6544671,22.9335994 C43.540517,22.7389807 43.0329161,22.1901908 43.0207891,21.103131 C42.9965351,18.8992049 43.0138594,16.6952788 43.0138594,14.493106 L43,14.493106 Z" id="Fill-24"></path>
                    <path d="M80.1867208,17.3375082 C81.3453892,17.3375082 82.4352093,17.3322779 83.5250294,17.3409951 C83.8608753,17.344482 84.1984005,17.3706335 84.5292088,17.421193 C85.2932583,17.5432333 85.8138195,17.9895522 85.9246487,18.7357415 C86.0186855,19.3511734 86.0270817,20.0014739 85.9364033,20.6169058 C85.817178,21.4206284 85.1908253,21.8913553 84.3545689,21.9715532 C84.2756451,21.978527 84.1950421,21.9872441 84.114439,21.9872441 C81.7836682,21.990731 79.4528974,22.0151391 77.1221265,21.9855007 C75.7233282,21.9663229 75.0113348,21.2445417 75.0096556,19.8776902 C74.9962217,14.2865004 74.997901,8.69531066 75.0079763,3.10586435 C75.0096556,1.93602078 75.5856314,1.2456213 76.7409414,1.06604769 C77.2883703,0.978876042 77.8727422,0.978876042 78.4201711,1.06081739 C79.588915,1.23864756 80.1833623,2.0266793 80.1850415,3.30112885 C80.1884,7.74862652 80.1867208,12.1943808 80.1867208,16.6418784 L80.1867208,17.3375082 Z" id="Fill-26"></path>
                    <path d="M37.085985,16.2450823 C36.5863148,14.3345869 36.0992262,12.4741325 35.6121375,10.6118909 L35.4863213,10.6190396 C34.9345271,12.4830684 34.3845304,14.34531 33.821952,16.2450823 L37.085985,16.2450823 Z M35.691222,7 C37.4364732,7.06791284 38.2614683,7.52364375 38.8617916,9.05525704 C39.6777999,11.1373218 40.402142,13.2515558 41.1408631,15.3604282 C41.7447812,17.0850569 42.3486992,18.8114729 42.8807222,20.5575478 C43.2941184,21.9050815 42.6129133,22.7861613 41.1480526,22.9434331 C39.5951206,23.1096409 38.691041,22.5466791 38.2434946,21.1330197 C38.1086914,20.7148196 38.0943124,20.1286245 37.7941508,19.9266732 C37.4652312,19.7068501 36.8703,19.8337398 36.3921983,19.8301655 C35.4288053,19.8212296 34.4636149,19.8462501 33.5002218,19.8176552 C33.1299626,19.8069321 32.9897673,19.9481194 32.8909117,20.2537272 C32.7363374,20.7344786 32.5745737,21.2170172 32.3552939,21.6727481 C31.7298074,22.9684536 29.8407663,23.4170358 28.6239434,22.5609766 C27.8996012,22.0498431 27.9085881,21.3081634 28.1386521,20.6058016 C28.6580935,19.0277216 29.2314561,17.4639391 29.8191978,15.9055181 C30.663964,13.6590328 31.5231093,11.4161219 32.4164047,9.18750836 C32.7417296,8.37791581 33.1820865,7.58798223 34.1364926,7.28594881 C34.6325681,7.13046414 35.1717806,7.09114618 35.691222,7 Z" id="Fill-28"></path>
                    <path d="M15.9754081,12.7278057 L15.8139321,12.7380057 C15.4311069,14.1218011 15.050096,15.5055964 14.6618278,16.9063918 L17.2889884,16.9063918 C16.8372184,15.4715966 16.4054061,14.0997011 15.9754081,12.7278057 M15.9518217,19.6229827 C15.4311069,19.6229827 14.9085777,19.5991828 14.3896772,19.6382827 C14.2209438,19.6501826 13.9995946,19.8031821 13.9233925,19.9442817 C13.7292584,20.3029805 13.6367272,20.7058791 13.442593,21.0645779 C12.9418359,21.9944748 11.3960204,22.3004738 10.4870373,21.6646759 C9.89012032,21.2481773 9.93729309,20.6514793 10.1277985,20.131281 C11.1547135,17.3296904 12.2288013,14.5416997 13.2956317,11.7520089 C13.3972346,11.4902098 13.5532676,11.2454106 13.7020433,11.0006115 C14.1030119,10.3461136 14.7253296,10.0129147 15.5635535,10.0078148 C15.7722023,10.0061148 15.9808511,10.0112147 16.1895,10.0027148 C17.2980601,9.96021492 18.0655249,10.4175134 18.4592361,11.3185104 C18.9872083,12.5272064 19.4716364,13.7512023 19.9488072,14.9734982 C20.592897,16.6207927 21.2279151,18.2697872 21.8393468,19.9255817 C22.211286,20.9302784 21.9300637,21.5813762 21.071882,21.8533753 C19.9107061,22.2222741 18.7586018,21.8465753 18.3503759,20.9455783 C18.2124862,20.6480793 18.0836683,20.3369803 18.0256095,20.0190814 C17.9621076,19.6688826 17.7534588,19.6059828 17.4123634,19.6195827 C16.926121,19.6365827 16.4380642,19.6229827 15.9518217,19.6229827" id="Fill-30"></path>
                    <path d="M26.9367293,12.4820169 C26.9250842,12.7152039 26.9034576,12.9265295 26.9034576,13.1378552 C26.901794,15.4624376 26.901794,17.7870199 26.901794,20.1116023 C26.901794,20.3611852 26.9034576,20.6089463 26.901794,20.8585292 C26.8834946,22.6529756 25.3679696,23.5420008 23.8457903,22.6493321 C23.3300792,22.3487395 23.1620572,21.8532173 23.1620572,21.2684281 C23.1620572,18.5612734 23.1620572,15.8559405 23.1603937,13.1487858 C23.1603937,12.4601556 23.1603937,12.4601556 22.4799878,12.4601556 C22.147271,12.4601556 21.8112271,12.4637992 21.4768467,12.4583339 C20.5136316,12.4419379 20.0228743,11.9263761 20.0012477,10.9134704 C19.9995841,10.7968769 19.9995841,10.6802834 20.0012477,10.5655117 C20.0212107,9.50341805 20.492005,9.01518288 21.5051276,9.01336111 C23.7676018,9.00971757 26.030076,9.04250948 28.2908867,9.0006087 C29.665007,8.97510388 30.0675943,9.75300095 29.9910695,10.9754106 C29.9245261,12.0356825 29.4437504,12.4565121 28.4040104,12.4601556 C28.0712936,12.4601556 27.7352496,12.4583339 27.4008692,12.4601556 C27.2594646,12.4619774 27.11806,12.4729081 26.9367293,12.4820169" id="Fill-32"></path>
                </g>
            </g>
        </g>
    </g>
</svg>