<?xml version="1.0" encoding="UTF-8"?>
<svg width="93px" height="46px" viewBox="0 0 93 46" version="1.1" xmlns="http://www.w3.org/2000/svg" xmlns:xlink="http://www.w3.org/1999/xlink">
    <!-- Generator: Sketch 48.2 (47327) - http://www.bohemiancoding.com/sketch -->
    <title>Essex_County_Council</title>
    <desc>Created with Sketch.</desc>
    <defs></defs>
    <g id="web5" stroke="none" stroke-width="1" fill="none" fill-rule="evenodd" transform="translate(-545.000000, -727.000000)">
        <g id="Group-5" transform="translate(411.000000, 557.000000)" fill="#FFFFFF" fill-rule="nonzero">
            <g id="Group-2" transform="translate(134.000000, 165.000000)">
                <g id="Essex_County_Council" transform="translate(0.000000, 4.000000)">
                    <g id="g10911" transform="translate(47.000000, 23.500000) scale(-1, 1) rotate(-180.000000) translate(-47.000000, -23.500000) ">
                        <g id="g10661" transform="translate(0.084843, 2.561423)">
                            <polygon id="path10663" points="0 7.68909396 0 0.0933139364 5.61511357 0.0933139364 5.61511357 1.06329833 1.05502264 1.06329833 1.05502264 3.54368698 5.21382557 3.54368698 5.21382557 4.51367138 1.05502264 4.51367138 1.05502264 6.71910957 5.5516371 6.71910957 5.5516371 7.68909396"></polygon>
                        </g>
                        <g id="g10665" transform="translate(5.982753, 0.000000)">
                            <g id="g10667-Clipped" transform="translate(-0.000000, 0.000000)">
                                <g id="g10667" transform="translate(0.003508, 0.011131)">
                                    <g id="g10673" transform="translate(0.076605, 2.235848)">
                                        <path d="M2.9184582,3.64655786 C4.27991894,3.33003664 4.66004812,2.86619448 4.66004812,2.08510179 C4.66004812,1.07208801 3.86841634,0.239214196 2.4121057,0.239214196 C0.659571552,0.239214196 0.110901411,1.17783819 0.110901411,2.212002 L1.06085955,2.212002 C1.08201838,1.68398042 1.27171816,1.10417772 2.53832902,1.10417772 C3.25626973,1.10417772 3.68893116,1.44184898 3.68893116,1.93778085 C3.68893116,2.29587283 3.46712834,2.51758355 2.81266409,2.67584416 L1.73648263,2.92891527 C0.933906623,3.10832592 0.280171987,3.43578682 0.280171987,4.40650052 C0.280171987,5.36627455 0.987168485,6.08391714 2.39094688,6.08391714 C3.92094859,6.08391714 4.51193637,5.14456383 4.51193637,4.3109607 L3.56197823,4.3109607 C3.50944598,4.7332321 3.29858738,5.2182243 2.32747041,5.2182243 C1.63068852,5.2182243 1.25055934,4.86013232 1.25055934,4.46922131 C1.25055934,4.05788959 1.63068852,3.93171869 2.17935866,3.81502883 L2.9184582,3.64655786 Z" id="path10675"></path>
                                    </g>
                                    <g id="g10677" transform="translate(4.952109, 2.235848)">
                                        <path d="M2.9184582,3.64655786 C4.27991894,3.33003664 4.66004812,2.86619448 4.66004812,2.08510179 C4.66004812,1.07208801 3.86841634,0.239214196 2.4121057,0.239214196 C0.659571552,0.239214196 0.110901411,1.17783819 0.110901411,2.212002 L1.06085955,2.212002 C1.08201838,1.68398042 1.27171816,1.10417772 2.53832902,1.10417772 C3.25626973,1.10417772 3.68893116,1.44184898 3.68893116,1.93778085 C3.68893116,2.29587283 3.46712834,2.51758355 2.81266409,2.67584416 L1.73648263,2.92891527 C0.933906623,3.10832592 0.280171987,3.43578682 0.280171987,4.40650052 C0.280171987,5.36627455 0.987168485,6.08391714 2.39094688,6.08391714 C3.92094859,6.08391714 4.51193637,5.14456383 4.51193637,4.3109607 L3.56197823,4.3109607 C3.50944598,4.7332321 3.29858738,5.2182243 2.32747041,5.2182243 C1.63068852,5.2182243 1.25055934,4.86013232 1.25055934,4.46922131 C1.25055934,4.05788959 1.63068852,3.93171869 2.17935866,3.81502883 L2.9184582,3.64655786 Z" id="path10679"></path>
                                    </g>
                                    <g id="g10681" transform="translate(10.085608, 2.288577)">
                                        <path d="M4.04315492,3.64655786 C4.03294032,4.2161502 3.66302574,5.16571387 2.58684428,5.16571387 C1.71057721,5.16571387 1.18306589,4.7332321 1.04589835,3.64655786 L4.04315492,3.64655786 Z M4.96173964,2.17991229 C4.88731895,1.35724884 4.17010785,0.185974451 2.58684428,0.185974451 C0.929889639,0.185974451 0.0324637441,1.29379873 0.0324637441,3.10832592 C0.0324637441,4.92285311 0.929889639,6.03067739 2.58684428,6.03067739 C4.09568717,6.03067739 5.03543071,5.03881365 5.03543071,3.39348675 C5.03543071,3.20313643 5.02448649,3.01351542 5.01427189,2.84504444 L1.04589835,2.84504444 C1.07727178,1.55780952 1.76310945,1.05093798 2.58684428,1.05093798 C3.54701703,1.05093798 3.87461396,1.74743053 4.01178149,2.17991229 L4.96173964,2.17991229 Z" id="path10683"></path>
                                    </g>
                                    <g id="g10685" transform="translate(14.629862, 2.553682)">
                                        <polygon id="path10687" points="2.18884365 2.91724629 0.352403827 5.59673701 1.55553822 5.59673701 2.79077565 3.67718895 4.02528347 5.59673701 5.22841786 5.59673701 3.39197804 2.91724629 5.36558539 0.0897053234 4.162451 0.0897053234 2.79077565 2.1996037 1.41837068 0.0897053234 0.215236292 0.0897053234"></polygon>
                                    </g>
                                    <g id="g10689" transform="translate(21.729381, 2.178780)">
                                        <path d="M6.96161312,3.31322453 C6.81350136,2.11058975 6.09629026,0.296062554 3.7213949,0.296062554 C1.62083462,0.296062554 0.249159265,1.80427888 0.249159265,4.26278819 C0.249159265,6.72056819 1.62083462,8.22951384 3.7213949,8.22951384 C6.28599004,8.22951384 6.89813665,6.44634704 6.96161312,5.65504399 L5.90586086,5.65504399 C5.74753451,6.2669364 5.30465848,7.2376501 3.82718901,7.2376501 C2.28624309,7.2376501 1.36765837,6.09846542 1.36765837,4.26278819 C1.36765837,2.42711097 2.28624309,1.28792629 3.82718901,1.28792629 C5.31487308,1.28792629 5.75847873,2.53286115 5.90586086,3.31322453 L6.96161312,3.31322453 Z" id="path10691"></path>
                                    </g>
                                    <g id="g10693" transform="translate(29.090385, 2.417157)">
                                        <path d="M0,2.97989119 C0,4.79441839 0.897425895,5.90224266 2.55438054,5.90224266 C4.21133518,5.90224266 5.10803146,4.79441839 5.10803146,2.97989119 C5.10803146,1.165364 4.21133518,0.0575397246 2.55438054,0.0575397246 C0.897425895,0.0575397246 0,1.165364 0,2.97989119 M2.55438054,0.922503249 C3.46202104,0.922503249 4.09532646,1.51324562 4.09532646,2.97989119 C4.09532646,4.44653677 3.46202104,5.03727914 2.55438054,5.03727914 C1.64674004,5.03727914 1.01343461,4.44653677 1.01343461,2.97989119 C1.01343461,1.51324562 1.64674004,0.922503249 2.55438054,0.922503249" id="path10695"></path>
                                    </g>
                                    <g id="g10697" transform="translate(34.802537, 2.203942)">
                                        <path d="M3.64807275,1.12528981 C3.35257885,0.872218696 2.85644096,0.270536648 1.72699764,0.270536648 C0.714292644,0.270536648 0.0809872149,0.840128986 0.0809872149,2.27541416 L0.0809872149,5.94676862 L1.05137457,5.94676862 L1.05137457,2.26447449 C1.05137457,1.67373211 1.31549503,1.17780024 2.07575339,1.17780024 C2.86738518,1.17780024 3.6057551,1.66352175 3.6057551,2.62329578 L3.6057551,5.94676862 L4.57687207,5.94676862 L4.57687207,0.439736933 L3.64807275,0.439736933 L3.64807275,1.12528981 Z" id="path10699"></path>
                                    </g>
                                    <g id="g10701" transform="translate(40.360157, 2.316145)">
                                        <path d="M0,5.83449258 L0.928799321,5.83449258 L0.928799321,5.1489397 C1.22429321,5.40201082 1.72043111,6.00296355 2.84987443,6.00296355 C3.79983257,6.00296355 4.49588485,5.43337121 4.49588485,3.99881535 L4.49588485,0.327460896 L3.5254975,0.327460896 L3.5254975,4.00902571 C3.5254975,4.57934736 3.21905939,5.09569996 2.50111867,5.09569996 C1.70948689,5.09569996 0.971116965,4.57934736 0.971116965,3.65093373 L0.971116965,0.327460896 L0,0.327460896 L0,5.83449258 Z" id="path10703"></path>
                                    </g>
                                    <g id="g10705" transform="translate(44.892231, 2.507009)">
                                        <path d="M2.9184582,0.0626449056 C2.76013184,0.0626449056 2.52811441,0.04149487 2.27493816,0.04149487 C1.29287698,0.04149487 1.01854191,0.368955766 1.01854191,1.44469033 L1.01854191,4.84182364 L0.290386591,4.84182364 L0.290386591,5.64333706 L1.01854191,5.64333706 L1.01854191,7.1209223 L1.98965888,7.1209223 L1.98965888,5.64333706 L2.89729937,5.64333706 L2.89729937,4.84182364 L1.98965888,4.84182364 L1.98965888,1.57159055 C1.98965888,1.03335861 2.15819984,0.906458395 2.51717019,0.906458395 C2.63317891,0.906458395 2.8236083,0.92760843 2.9184582,0.92760843 L2.9184582,0.0626449056 Z" id="path10707"></path>
                                    </g>
                                    <g id="g10709" transform="translate(48.130917, 0.187541)">
                                        <path d="M2.9184582,1.85460138 C2.38000266,0.356595414 1.91596781,0.219484838 1.3140358,0.219484838 C1.08201838,0.219484838 0.85000095,0.26178491 0.628198127,0.304084981 L0.628198127,1.19019854 C0.796739088,1.1369588 1.00832731,1.1055984 1.20897131,1.1055984 C1.73648263,1.1055984 1.91596781,1.71749081 2.13777063,2.35053325 L0.100686808,7.96331511 L1.15570945,7.96331511 L2.63317891,3.60567847 L2.65433773,3.60567847 L4.10043377,7.96331511 L5.1350272,7.96331511 L2.9184582,1.85460138 Z" id="path10711"></path>
                                    </g>
                                    <g id="g10713" transform="translate(55.117637, 2.178780)">
                                        <path d="M6.96161312,3.31322453 C6.81350136,2.11058975 6.09629026,0.296062554 3.7213949,0.296062554 C1.62083462,0.296062554 0.249159265,1.80427888 0.249159265,4.26278819 C0.249159265,6.72056819 1.62083462,8.22951384 3.7213949,8.22951384 C6.28599004,8.22951384 6.89813665,6.44634704 6.96161312,5.65504399 L5.90586086,5.65504399 C5.74753451,6.2669364 5.30465848,7.2376501 3.82718901,7.2376501 C2.28624309,7.2376501 1.36765837,6.09846542 1.36765837,4.26278819 C1.36765837,2.42711097 2.28624309,1.28792629 3.82718901,1.28792629 C5.31487308,1.28792629 5.75847873,2.53286115 5.90586086,3.31322453 L6.96161312,3.31322453 Z" id="path10715"></path>
                                    </g>
                                    <g id="g10717" transform="translate(62.489074, 2.417157)">
                                        <path d="M0,2.97989119 C0,4.79441839 0.897425895,5.90224266 2.55438054,5.90224266 C4.21133518,5.90224266 5.10803146,4.79441839 5.10803146,2.97989119 C5.10803146,1.165364 4.21133518,0.0575397246 2.55438054,0.0575397246 C0.897425895,0.0575397246 0,1.165364 0,2.97989119 M2.55438054,0.922503249 C3.46202104,0.922503249 4.09532646,1.51324562 4.09532646,2.97989119 C4.09532646,4.44653677 3.46202104,5.03727914 2.55438054,5.03727914 C1.64674004,5.03727914 1.01343461,4.44653677 1.01343461,2.97989119 C1.01343461,1.51324562 1.64674004,0.922503249 2.55438054,0.922503249" id="path10719"></path>
                                    </g>
                                    <g id="g10721" transform="translate(68.106450, 2.203942)">
                                        <path d="M3.64807275,1.12528981 C3.35257885,0.872218696 2.85644096,0.270536648 1.72699764,0.270536648 C0.714292644,0.270536648 0.0809872149,0.840128986 0.0809872149,2.27541416 L0.0809872149,5.94676862 L1.05137457,5.94676862 L1.05137457,2.26447449 C1.05137457,1.67373211 1.31549503,1.17780024 2.07575339,1.17780024 C2.86738518,1.17780024 3.6057551,1.66352175 3.6057551,2.62329578 L3.6057551,5.94676862 L4.57687207,5.94676862 L4.57687207,0.439736933 L3.64807275,0.439736933 L3.64807275,1.12528981 Z" id="path10723"></path>
                                    </g>
                                    <g id="g10725" transform="translate(73.516396, 2.316145)">
                                        <path d="M0,5.83449258 L0.928799321,5.83449258 L0.928799321,5.1489397 C1.22429321,5.40201082 1.72043111,6.00296355 2.84987443,6.00296355 C3.79983257,6.00296355 4.49588485,5.43337121 4.49588485,3.99881535 L4.49588485,0.327460896 L3.5254975,0.327460896 L3.5254975,4.00902571 C3.5254975,4.57934736 3.21905939,5.09569996 2.50111867,5.09569996 C1.70948689,5.09569996 0.971116965,4.57934736 0.971116965,3.65093373 L0.971116965,0.327460896 L0,0.327460896 L0,5.83449258 Z" id="path10727"></path>
                                    </g>
                                    <g id="g10729" transform="translate(78.202710, 2.438961)">
                                        <path d="M5.10730184,2.18793472 C5.0547696,1.15377091 4.34704348,0.035736267 2.86957402,0.035736267 C1.21261938,0.035736267 0.315193485,1.14356055 0.315193485,2.95808774 C0.315193485,4.77261493 1.21261938,5.88043921 2.86957402,5.88043921 C4.53747288,5.88043921 5.07592842,4.69895446 5.07592842,3.8128409 L4.12597027,3.8128409 C4.08365263,4.31898313 3.81953216,5.01547568 2.86957402,5.01547568 C1.96193352,5.01547568 1.32862809,4.42473331 1.32862809,2.95808774 C1.32862809,1.49144217 1.96193352,0.900699792 2.86957402,0.900699792 C3.79837334,0.900699792 4.08365263,1.77660299 4.1573437,2.18793472 L5.10730184,2.18793472 Z" id="path10731"></path>
                                    </g>
                                    <path d="M83.8031582,8.15071024 L84.7742752,8.15071024 L84.7742752,2.64367856 L83.8031582,2.64367856 L83.8031582,8.15071024 Z M83.8031582,10.2394586 L84.7742752,10.2394586 L84.7742752,9.1629947 L83.8031582,9.1629947 L83.8031582,10.2394586 Z" id="path10733"></path>
                                    <polygon id="path10735" points="85.6286538 10.2394586 86.5997708 10.2394586 86.5997708 2.64367856 85.6286538 2.64367856"></polygon>
                                    <g id="g10737" transform="translate(21.558870, 25.014182)">
                                        <path d="M11.3393004,7.68909396 C10.4849218,7.43383491 9.89904129,7.16982412 9.18547826,7.00208246 C8.87758092,6.9291513 8.46972639,7.25223633 8.36174344,7.56584031 C8.13994061,8.21201036 8.09178605,8.9646599 7.84079865,9.53935742 C7.44315872,9.93026842 6.05105416,9.44673485 6.04740609,8.90996153 C6.22762088,8.28931739 6.67925229,7.54760752 6.93534699,6.81027352 C7.00830845,6.59950247 6.99663461,6.37997969 6.9506689,6.16410346 C6.85363016,5.70755442 6.57856548,5.33998139 6.16560364,5.13869139 C5.39658991,4.76382525 4.6188208,4.52023518 3.78268253,4.30217102 C2.66126496,4.00898777 1.60405348,3.71361658 0.510361274,3.36500565 C0.430833288,3.33947974 0.367356822,3.26873652 0.345468386,3.1914295 C0.182764341,2.61527335 0.273236545,2.16237087 0.550490074,1.64383034 C0.739460242,1.29084354 1.07216448,0.751882286 1.43113483,0.87440663 C2.78529944,1.46879556 4.03585877,2.14195014 5.40242683,2.73269252 C6.06637606,3.01931196 6.72302916,3.41605746 7.48401713,3.30374348 C7.89770858,3.24321062 8.31723695,3.01712403 8.47264485,2.61454404 C8.73822454,1.92388598 9.04539227,0.552780227 9.05414764,0.533818126 C9.29346122,0.0160069098 10.9496862,0.608207906 10.8891282,1.06256902 C10.8869394,1.07715525 10.2310159,2.42856959 10.05299,2.88366001 C9.90341898,3.26654859 10.2507155,3.78654774 10.6344928,3.89813241 C13.473423,4.72079586 16.384585,4.84769608 19.3066913,4.61650431 C19.884546,4.57128699 20.44489,4.53846797 21.0351482,4.4268833 C21.648754,4.31019345 22.2076387,4.2066312 22.8212446,4.09212929 C23.6238206,3.94116179 24.1797869,3.68736136 24.9933071,3.51232659 C25.1742515,3.46127478 25.2151099,3.62901644 25.231891,3.70413553 L25.2618052,3.79457017 C25.7287585,6.91748232 31.2212969,4.85061332 29.4760589,2.09162764 C29.4760589,2.09162764 29.4468743,2.01650855 29.4366597,1.99827576 C29.3855867,1.9063825 29.4541704,1.84876689 29.4541704,1.84876689 C29.9991925,1.47171281 30.5383777,1.15519159 31.1731423,0.756258156 C31.2169192,0.728544316 31.2920695,0.671658013 31.3540867,0.713958084 C31.6364476,0.905767028 31.7327567,1.21499513 31.9655037,1.43816448 C32.2215984,1.68248385 32.4995816,1.88304453 32.814775,2.05005688 C34.1696693,2.76697016 35.5282116,3.29499174 36.9363676,3.84562198 C36.9516895,3.85145647 36.9575265,3.93824455 36.935638,3.95283078 C25.8965699,11.2700138 15.7403354,8.95736679 11.4144507,7.71389055 L11.3393004,7.68909396 Z" id="path10739"></path>
                                    </g>
                                    <g id="g10741" transform="translate(21.642556, 35.389952)">
                                        <path d="M11.3393004,7.68909396 C10.4849218,7.43383491 9.89904129,7.16982412 9.18547826,7.00208246 C8.87758092,6.9291513 8.46972639,7.25223633 8.36174344,7.56584031 C8.13994061,8.21201036 8.09178605,8.9646599 7.84079865,9.53935742 C7.44315872,9.92953911 6.05105416,9.44673485 6.04740609,8.90996153 C6.22762088,8.28931739 6.67925229,7.54760752 6.93534699,6.81027352 C7.00830845,6.59950247 6.99663461,6.37997969 6.9506689,6.16410346 C6.85363016,5.70755442 6.57856548,5.33998139 6.16560364,5.13869139 C5.39658991,4.76382525 4.6188208,4.52023518 3.78268253,4.30217102 C2.66126496,4.00898777 1.60405348,3.71361658 0.510361274,3.36500565 C0.430833288,3.33947974 0.367356822,3.26873652 0.345468386,3.1914295 C0.182764341,2.61527335 0.273236545,2.16237087 0.550490074,1.64383034 C0.739460242,1.29084354 1.07216448,0.751882286 1.43113483,0.87440663 C2.78529944,1.46879556 4.03585877,2.14195014 5.40242683,2.73269252 C6.06637606,3.01931196 6.72302916,3.41605746 7.48401713,3.30374348 C7.89770858,3.24321062 8.31723695,3.01712403 8.47264485,2.61454404 C8.73822454,1.92388598 9.04539227,0.552780227 9.05414764,0.533818126 C9.29346122,0.0160069098 10.9496862,0.608207906 10.8891282,1.06256902 C10.8869394,1.07715525 10.2310159,2.42856959 10.05299,2.88366001 C9.90341898,3.26654859 10.2507155,3.78654774 10.6344928,3.89813241 C13.473423,4.72079586 16.384585,4.84769608 19.3066913,4.61650431 C19.884546,4.57055768 20.44489,4.53846797 21.0351482,4.42615399 C21.648754,4.31019345 22.2076387,4.2066312 22.8212446,4.09212929 C23.6238206,3.94116179 24.1797869,3.68736136 24.9933071,3.51232659 C25.1742515,3.46127478 25.2151099,3.62901644 25.231891,3.70413553 L25.2618052,3.79457017 C25.7287585,6.91748232 31.2212969,4.85061332 29.4760589,2.09162764 C29.4760589,2.09162764 29.4468743,2.01650855 29.4366597,1.99827576 C29.3855867,1.9063825 29.4541704,1.84876689 29.4541704,1.84876689 C29.9991925,1.47171281 30.5383777,1.15519159 31.1731423,0.756258156 C31.2169192,0.728544316 31.2920695,0.671658013 31.3540867,0.713958084 C31.6364476,0.905767028 31.7327567,1.21499513 31.9655037,1.43816448 C32.2215984,1.68248385 32.4995816,1.88304453 32.814775,2.05005688 C34.1696693,2.76697016 35.5282116,3.29499174 36.9363676,3.84562198 C36.9516895,3.85145647 36.9575265,3.93824455 36.935638,3.95283078 C25.8965699,11.2700138 15.7403354,8.95736679 11.4144507,7.71389055 L11.3393004,7.68909396 Z" id="path10743"></path>
                                    </g>
                                    <g id="g10745" transform="translate(21.515749, 14.659198)">
                                        <path d="M11.3393004,7.68909396 C10.4849218,7.43383491 9.89904129,7.16982412 9.18547826,7.00208246 C8.87758092,6.9291513 8.46972639,7.25223633 8.36174344,7.56584031 C8.13994061,8.21201036 8.09178605,8.9646599 7.84079865,9.53935742 C7.44315872,9.92953911 6.05105416,9.44673485 6.04740609,8.90996153 C6.22762088,8.28931739 6.67925229,7.54760752 6.93534699,6.81027352 C7.00830845,6.59950247 6.99663461,6.37997969 6.9506689,6.16410346 C6.85363016,5.70755442 6.57856548,5.33998139 6.16560364,5.13869139 C5.39658991,4.76382525 4.6188208,4.52023518 3.78268253,4.30217102 C2.66126496,4.00898777 1.60405348,3.71361658 0.510361274,3.36500565 C0.430833288,3.33947974 0.367356822,3.26873652 0.345468386,3.1914295 C0.182764341,2.61527335 0.273236545,2.16237087 0.550490074,1.64383034 C0.739460242,1.29084354 1.07216448,0.751882286 1.43113483,0.87440663 C2.78529944,1.46879556 4.03585877,2.14195014 5.40242683,2.73269252 C6.06637606,3.01931196 6.72302916,3.41605746 7.48401713,3.30374348 C7.89770858,3.24321062 8.31723695,3.01712403 8.47264485,2.61454404 C8.73822454,1.92388598 9.04539227,0.552780227 9.05414764,0.533818126 C9.29346122,0.0160069098 10.9496862,0.608207906 10.8891282,1.06256902 C10.8869394,1.07715525 10.2310159,2.42856959 10.05299,2.88366001 C9.90341898,3.26654859 10.2507155,3.78654774 10.6344928,3.89813241 C13.473423,4.72079586 16.384585,4.84769608 19.3066913,4.61650431 C19.884546,4.57055768 20.44489,4.53846797 21.0351482,4.42615399 C21.648754,4.31019345 22.2076387,4.2066312 22.8212446,4.09212929 C23.6238206,3.94116179 24.1797869,3.68736136 24.9933071,3.51232659 C25.1742515,3.46127478 25.2151099,3.62901644 25.231891,3.70413553 L25.2618052,3.79384085 C25.7287585,6.91748232 31.2212969,4.85061332 29.4760589,2.09162764 C29.4760589,2.09162764 29.4468743,2.01650855 29.4366597,1.99827576 C29.3855867,1.9063825 29.4541704,1.84876689 29.4541704,1.84876689 C29.9991925,1.47171281 30.5383777,1.15519159 31.1731423,0.756258156 C31.2169192,0.728544316 31.2920695,0.671658013 31.3540867,0.713958084 C31.6364476,0.905767028 31.7327567,1.21499513 31.9655037,1.43816448 C32.2215984,1.68248385 32.4995816,1.88304453 32.814775,2.05005688 C34.1696693,2.76697016 35.5282116,3.29499174 36.9363676,3.84562198 C36.9516895,3.85145647 36.9575265,3.93824455 36.935638,3.95283078 C25.8965699,11.2700138 15.7403354,8.95736679 11.4144507,7.71389055 L11.3393004,7.68909396 Z" id="path10747"></path>
                                    </g>
                                </g>
                            </g>
                        </g>
                    </g>
                </g>
            </g>
        </g>
    </g>
</svg>