<?xml version="1.0" encoding="UTF-8"?>
<svg width="120px" height="16px" viewBox="0 0 120 16" version="1.1" xmlns="http://www.w3.org/2000/svg" xmlns:xlink="http://www.w3.org/1999/xlink">
    <!-- Generator: Sketch 48.2 (47327) - http://www.bohemiancoding.com/sketch -->
    <title>futuregov</title>
    <desc>Created with Sketch.</desc>
    <defs></defs>
    <g id="web5" stroke="none" stroke-width="1" fill="none" fill-rule="evenodd" transform="translate(-550.000000, -613.000000)">
        <g id="Group-5" transform="translate(411.000000, 557.000000)" fill="#FFFFFF">
            <g id="Page-1" transform="translate(0.000000, 45.000000)">
                <g id="futuregov" transform="translate(139.000000, 11.000000)">
                    <polyline id="Fill-1" points="5.23414873 4.0827701 4.87323442 6.42227446 8.76397986 6.42227446 8.28810765 9.50413034 4.39647106 9.50413034 3.54720848 15 0 15 2.16325803 1 10 1 9.52368222 4.0827701 5.23414873 4.0827701"></polyline>
                    <path d="M25,1 L23.7235781,8.66927481 C23.4318245,10.424173 23.066665,12.160369 21.4222782,13.4806616 C20.0392541,14.6019084 18.0928276,15 16.4217902,15 C14.7507529,15 12.9366441,14.6019084 11.9271955,13.4806616 C10.7218417,12.160369 10.9350463,10.424173 11.2272674,8.66927481 L12.5036893,1 L16.2263528,1 L15.0308177,8.1807888 C14.7357912,9.95349873 14.5464319,11.8891858 16.9393723,11.8891858 C19.3323127,11.8891858 19.7877101,9.95349873 20.0827366,8.1807888 L21.2778041,1 L25,1" id="Fill-2"></path>
                    <polyline id="Fill-3" points="30.8465594 15 27.259069 15 28.9651661 4.0827701 26 4.0827701 26.4817268 1 36 1 35.5178225 4.0827701 32.5526565 4.0827701 30.8465594 15"></polyline>
                    <path d="M50,1 L48.7235811,8.66927481 C48.4318282,10.424173 48.0666695,12.160369 46.4222866,13.4806616 C45.0392656,14.6019084 43.0928437,15 41.4218103,15 C39.7503093,15 37.9362047,14.6019084 36.9267584,13.4806616 C35.721875,12.160369 35.9350791,10.424173 36.2272995,8.66927481 L37.5037185,1 L41.2263732,1 L40.0308409,8.1807888 C39.7358151,9.95349873 39.5464563,11.8891858 41.9393911,11.8891858 C44.3323259,11.8891858 44.7877223,9.95349873 45.082748,8.1807888 L46.2778128,1 L50,1" id="Fill-4"></path>
                    <path d="M54.8983543,7.27616156 L55.254255,7.27616156 C56.4508734,7.27616156 57.833039,7.05354752 58.0761381,5.53044699 C58.3192371,4.0087178 57.0079754,3.78518954 55.8113571,3.78518954 L55.4559168,3.78518954 L54.8983543,7.27616156 Z M61.7253867,15 L57.1622144,15 L54.5627118,9.61566592 L54.5254182,9.61566592 L53.6653632,15 L50,15 L52.2353144,1 L57.7151728,1 C60.5011434,1 62.4040383,2.31831391 61.926588,5.30783296 C61.6185704,7.2391354 60.2672526,8.90988344 58.2096584,9.26323179 L61.7253867,15 Z" id="Fill-5"></path>
                    <polyline id="Fill-6" points="68.2724417 4.0827701 67.9084381 6.42227446 71.9376122 6.42227446 71.4578097 9.50413034 67.4286355 9.50413034 67.0529623 11.917687 71.3007181 11.917687 70.8213645 15 63 15 65.1790844 1 73 1 72.5206463 4.0827701 68.2724417 4.0827701"></polyline>
                    <path d="M88,7.17922102 C87.6374508,9.23139813 87.2101114,10.9850266 85.6817989,12.7386552 C83.9958762,14.6603895 81.7907132,15.5 79.4385087,15.5 C75.0157761,15.5 72.4122226,12.4961418 73.1134267,8.0748668 C73.8380656,3.50385817 77.4130121,0.5 81.9483233,0.5 C84.8413648,0.5 86.8742135,1.80626493 87.6700756,4.4367077 L83.9678464,5.89178762 C83.6765204,4.54831894 82.754754,3.65313246 81.2802035,3.65313246 C78.8728585,3.65313246 77.258159,5.94782289 76.917666,8.09323902 C76.571659,10.2763182 77.5260502,12.4961418 79.9338548,12.4961418 C81.5205244,12.4961418 82.8641161,11.6753629 83.2703183,10.0521771 L80.2839973,10.0521771 L80.7402855,7.17922102 L88,7.17922102" id="Fill-7"></path>
                    <path d="M92.9763505,7.75748668 C92.5861194,10.1830792 94.1190701,11.9550799 96.3345756,11.9550799 C98.550081,11.9550799 100.653226,10.1830792 101.043457,7.75748668 C101.355828,5.81738012 99.8228777,4.04492008 97.6073723,4.04492008 C95.3914006,4.04492008 93.2882556,5.81738012 92.9763505,7.75748668 Z M104.909868,7.73911446 C104.177428,12.2912916 100.346916,15.5 95.7639151,15.5 C91.1813808,15.5 88.3835592,12.2912916 89.1160001,7.73911446 C89.8004197,3.48502664 94.0682515,0.5 98.1780328,0.5 C102.286882,0.5 105.594288,3.48502664 104.909868,7.73911446 Z" id="Fill-8"></path>
                    <polyline id="Fill-9" points="111.113636 9.50413034 115.961125 1 120 1 111.627657 15 108.744748 15 105 1 109.039341 1 111.113636 9.50413034"></polyline>
                </g>
            </g>
        </g>
    </g>
</svg>