<?xml version="1.0" encoding="UTF-8"?>
<svg width="58px" height="51px" viewBox="0 0 58 51" version="1.1" xmlns="http://www.w3.org/2000/svg" xmlns:xlink="http://www.w3.org/1999/xlink">
    <!-- Generator: Sketch 48.2 (47327) - http://www.bohemiancoding.com/sketch -->
    <title>Group</title>
    <desc>Created with Sketch.</desc>
    <defs></defs>
    <g id="web5" stroke="none" stroke-width="1" fill="none" fill-rule="evenodd" transform="translate(-695.000000, -724.000000)">
        <g id="Group-5" transform="translate(411.000000, 557.000000)" fill-rule="nonzero">
            <g id="Group-2" transform="translate(134.000000, 165.000000)">
                <g id="Group" transform="translate(150.500000, 0.000000)">
                    <g id="North_East_Lincolnshire_Council">
                        <g id="g2993" transform="translate(31.000000, 27.000000) scale(-1, 1) rotate(-180.000000) translate(-31.000000, -27.000000) ">
                            <g id="g7830" transform="translate(30.526607, 27.483637) scale(-1, 1) rotate(-180.000000) translate(-30.526607, -27.483637) translate(0.026607, 0.983637)">
                                <g id="g28001" transform="translate(30.017275, 26.791290) scale(-1, 1) rotate(-180.000000) translate(-30.017275, -26.791290) translate(0.017275, 0.791290)">
                                    <g id="g27574" transform="translate(-0.000000, 0.000000)">
                                        <g id="g27576-Clipped" transform="translate(-0.000000, 0.000000)">
                                            <g id="g27576" transform="translate(0.009057, 0.044855)">
                                                <g id="g27606" transform="translate(20.296097, 13.652103)" fill="#FFFFFF">
                                                    <path d="M0.20307152,14.4191555 C0.835273677,14.4123147 1.45828017,14.3655691 2.06979207,14.2811989 L0.353650579,22.0671977 L0.201922062,22.0683378 L0.20307152,14.4191555 Z M2.78705415,14.1626246 C3.08361444,14.1067579 3.37672635,14.0406299 3.66638988,13.966521 L8.38376743,20.460744 C6.3365819,21.2850634 4.13766785,21.8152273 1.83990038,21.9976493 L2.78705415,14.1626246 Z M7.39063531,12.4353163 C7.64926347,12.2836781 7.90214433,12.1240588 8.15042736,11.9575987 L14.4057803,16.8339667 C12.7011334,18.2728202 10.7757905,19.4597033 8.68492554,20.3376092 L7.39063531,12.4353163 Z M8.40215876,11.7842979 C8.51940352,11.702208 8.63549883,11.6178378 8.75044468,11.5323275 L15.7092662,15.8010022 L23.6232878,23.6508487 L8.40215876,11.7842979 Z M15.9069731,15.61744 L11.5988028,8.70592668 C11.6850121,8.59305307 11.7689226,8.47903932 11.8516836,8.3627453 L23.8129484,23.4593056 L15.9069731,15.61744 Z M12.0275508,8.11191506 C12.1953717,7.86564536 12.3562959,7.61481512 12.5080244,7.35828419 L20.474921,8.64321912 C19.589838,10.715989 18.3932518,12.6268594 16.9437846,14.3165432 L12.0275508,8.11191506 Z M14.0517471,3.66537892 C14.1264619,3.37806428 14.1931305,3.08732922 14.249454,2.79203362 L22.1485326,1.85370048 C21.9646192,4.13283528 21.430121,6.31391826 20.600212,8.34336296 L14.0517471,3.66537892 Z M14.3689977,2.07716742 C14.4540576,1.47631497 14.5011854,0.864061152 14.5080821,0.241546092 L22.219799,0.240405955 L22.2186495,0.389763964 L14.3689977,2.07716742 Z M26.6061325,1.32353655 L37.1236775,0.073945884 L22.219799,0.073945884 L14.5092316,0.073945884 L13.0620634,0.073945884 C13.0620634,7.20436563 7.23430896,12.9837225 0.0455957101,12.9837225 L0.0455957101,14.4202957 L0.0455957101,22.0683378 L0.0455957101,36.8513603 L1.30655165,26.4191024 L5.88139634,29.1713943 L9.84243022,23.8241495 L10.0516317,23.7386392 L16.6621673,24.7396799 L17.9254222,19.5782776 L26.261295,26.0770612 L19.7185774,17.8190455 L24.9141296,16.5523528 L23.9049051,9.9965623 L23.989965,9.79133755 L29.3809252,5.86128369 L26.6061325,1.32353655 Z M25.8750769,1.41132714 L26.0704848,1.38738425 L28.7211361,5.73130802 L24.3290553,8.92597321 C25.2049426,6.56474851 25.7394408,4.03934401 25.8750769,1.41132714 Z M1.37092132,25.8832378 L1.39391049,25.693975 C4.04801009,25.5594388 6.59750897,25.0269946 8.98148583,24.1559296 L5.75035808,28.5192357 L1.37092132,25.8832378 Z M19.3863839,17.400615 L19.2633918,17.2444162 C20.9864301,15.3472274 22.4290004,13.1946479 23.5244343,10.8493851 L24.3485961,16.1954897 L19.3863839,17.400615 Z M17.3575897,19.1347641 L17.5104676,19.2544786 L16.2885933,24.1855731 L10.9056793,23.3646741 C13.2712648,22.276983 15.4437413,20.8461105 17.3575897,19.1347641 Z M0.0455957101,12.2836781 C6.84464254,12.2836781 12.3551464,6.81785903 12.3551464,0.073945884 L12.0172056,0.073945884 C12.0172056,6.63201662 6.65728081,11.9484776 0.0455957101,11.9484776 L0.0455957101,12.2836781 Z" id="path27608"></path>
                                                </g>
                                                <g id="g27610" transform="translate(0.117546, 0.168414)" fill="#182D32">
                                                    <path d="M6.8967508,3.88949725 L6.34960857,3.61244385 C6.04845045,3.87125505 5.68522157,4.06849884 5.2610714,4.20075478 C4.8403696,4.33643114 4.37713784,4.40369925 3.87137611,4.40369925 C3.31848659,4.40369925 2.80582812,4.31590867 2.33455015,4.13918736 C1.86327217,3.96474633 1.49774438,3.72873787 1.23681731,3.43116199 C0.979338613,3.13586638 0.850599265,2.80408638 0.850599265,2.4335417 C0.850599265,1.87487434 1.13911334,1.40855812 1.71729095,1.03459303 C2.29891693,0.660627935 3.03112198,0.473645389 3.91390608,0.473645389 C4.88404902,0.473645389 5.69671616,0.725615771 6.34960857,1.2284164 L6.8967508,0.953643265 C6.5507638,0.66290821 6.11856742,0.43716099 5.60016165,0.277541744 C5.08520426,0.120202773 4.50932556,0.0403931504 3.87137611,0.0403931504 C2.65869743,0.0403931504 1.70119853,0.307185319 1.00117832,0.841909793 C0.413805048,1.29226409 0.119543681,1.83724981 0.119543681,2.47458665 C0.119543681,3.14612762 0.474726347,3.70935553 1.18509168,4.16655066 C1.89775593,4.62602606 2.7897357,4.85519369 3.86218045,4.85519369 C4.50932556,4.85519369 5.09325046,4.77082352 5.61510461,4.5998029 C6.13695875,4.43220269 6.56340784,4.1950541 6.8967508,3.88949725" id="path27612"></path>
                                                </g>
                                                <g id="g27614" transform="translate(10.351212, 0.128526)" fill="#182D32">
                                                    <path d="M3.65144692,4.8954242 C4.7009025,4.8954242 5.57908877,4.66397629 6.28600572,4.19994034 C6.99292268,3.73704453 7.34580643,3.16697579 7.34580643,2.48973413 C7.34580643,1.81819316 6.99292268,1.24926457 6.28600572,0.781808202 C5.58253714,0.314351839 4.72274221,0.0806236572 3.70777038,0.0806236572 C2.68015452,0.0806236572 1.81346283,0.313211701 1.10654587,0.77838779 C0.399628918,1.24356388 0.0467451686,1.80679179 0.0467451686,2.46807152 C0.0467451686,2.90816459 0.206519895,3.3163338 0.527218808,3.69257917 C0.850216637,4.06882453 1.29045923,4.36183986 1.84679713,4.57390543 C2.40313502,4.78825128 3.0043018,4.8954242 3.65144692,4.8954242 M3.68478121,4.44621003 C3.17212274,4.44621003 2.68705127,4.35841945 2.22841734,4.18169814 C1.76978341,4.00497683 1.41115237,3.7666881 1.15367367,3.46797208 C0.896194975,3.16925607 0.767455627,2.83519579 0.767455627,2.46807152 C0.767455627,1.92308581 1.05137187,1.46361041 1.62035381,1.08736504 C2.19163467,0.713399954 2.88016029,0.526417408 3.68478121,0.526417408 C4.22157832,0.526417408 4.71814438,0.611927719 5.17332993,0.785228614 C5.63196386,0.957389373 5.98944544,1.19339783 6.24347576,1.49211385 C6.50095446,1.79082986 6.62969381,2.12375001 6.62969381,2.48973413 C6.62969381,2.85343799 6.50095446,3.18179758 6.24347576,3.47481291 C5.98944544,3.76896838 5.62966494,4.00497683 5.16413426,4.18169814 C4.69975304,4.35841945 4.2054859,4.44621003 3.68478121,4.44621003" id="path27616"></path>
                                                </g>
                                                <g id="g27618" transform="translate(21.405747, 0.147468)" fill="#182D32">
                                                    <path d="M0,4.76121367 L0.693123455,4.76121367 L0.693123455,1.99410003 C0.693123455,1.66574044 0.702319123,1.46051569 0.720710458,1.37956593 C0.755194212,1.19942421 0.835656305,1.04778593 0.960947278,0.924651081 C1.08738771,0.803796509 1.28049673,0.702324274 1.5414238,0.619094239 C1.80235088,0.538144478 2.06442741,0.498239667 2.32765339,0.498239667 C2.55754509,0.498239667 2.77709165,0.530163516 2.98744255,0.595151352 C3.19894291,0.65899905 3.3736606,0.747929773 3.51619345,0.863083658 C3.65757684,0.977097405 3.7610281,1.11505404 3.82654723,1.27695356 C3.87367503,1.39324758 3.89781366,1.63267645 3.89781366,1.99410003 L3.89781366,4.76121367 L4.58978766,4.76121367 L4.58978766,1.99410003 C4.58978766,1.58479068 4.52886636,1.25301067 4.40702376,0.999900154 C4.28748008,0.747929773 4.04494434,0.529023379 3.68056601,0.342040833 C3.31963605,0.155058288 2.88054292,0.0615670155 2.36558552,0.0615670155 C1.80694871,0.0615670155 1.32762453,0.150497738 0.928762441,0.326078909 C0.529900353,0.502800217 0.26207653,0.736528398 0.12758989,1.02726345 C0.0425299633,1.20626504 0,1.52892394 0,1.99410003 L0,4.76121367 Z" id="path27620"></path>
                                                </g>
                                            </g>
                                        </g>
                                    </g>
                                    <g id="g27622" transform="translate(30.010224, 0.369272)" fill="#182D32">
                                        <polygon id="path27624" points="0 0 0 4.58449277 0.150579059 4.58449277 4.75990751 1.07514964 4.75990751 4.58449277 5.4438353 4.58449277 5.4438353 0 5.28750895 0 0.716112625 3.46487777 0.716112625 0"></polygon>
                                    </g>
                                    <g id="g27626" transform="translate(38.947375, 0.134211)" fill="#182D32">
                                        <g id="g27628-Clipped" transform="translate(-0.000000, 0.000000)">
                                            <g id="g27628" transform="translate(0.008072, 0.044855)">
                                                <g id="g27634" transform="translate(0.044117, 0.034204)">
                                                    <path d="M6.8967508,3.88949725 L6.34960857,3.61244385 C6.04845045,3.87125505 5.68522157,4.06849884 5.2610714,4.20075478 C4.8403696,4.33643114 4.37713784,4.40369925 3.87137611,4.40369925 C3.31848659,4.40369925 2.80582812,4.31590867 2.33455015,4.13918736 C1.86327217,3.96474633 1.49774438,3.72873787 1.23681731,3.43116199 C0.979338613,3.13586638 0.850599265,2.80408638 0.850599265,2.4335417 C0.850599265,1.87487434 1.13911334,1.40855812 1.71729095,1.03459303 C2.29891693,0.660627935 3.03112198,0.473645389 3.91390608,0.473645389 C4.88404902,0.473645389 5.69671616,0.725615771 6.34960857,1.2284164 L6.8967508,0.953643265 C6.5507638,0.66290821 6.11856742,0.43716099 5.60016165,0.277541744 C5.08520426,0.120202773 4.50932556,0.0403931504 3.87137611,0.0403931504 C2.65869743,0.0403931504 1.70119853,0.307185319 1.00117832,0.841909793 C0.413805048,1.29226409 0.119543681,1.83724981 0.119543681,2.47458665 C0.119543681,3.14612762 0.474726347,3.70935553 1.18509168,4.16655066 C1.89775593,4.62602606 2.7897357,4.85519369 3.86218045,4.85519369 C4.50932556,4.85519369 5.09325046,4.77082352 5.61510461,4.5998029 C6.13580929,4.43220269 6.56340784,4.1950541 6.8967508,3.88949725" id="path27636"></path>
                                                </g>
                                            </g>
                                        </g>
                                    </g>
                                    <polygon id="path27638" fill="#182D32" points="49.4826256 0.369956371 50.1745996 0.369956371 50.1745996 4.95330901 49.4826256 4.95330901"></polygon>
                                    <g id="g27640" transform="translate(54.033332, 0.324938)" fill="#182D32">
                                        <polygon id="path27642" points="0 4.62700315 0.697721289 4.62700315 0.697721289 0.484883713 3.3598671 0.484883713 3.3598671 0.0425103738 0 0.0425103738"></polygon>
                                    </g>
                                    <g id="g27738" transform="translate(0.491786, 19.133883)" fill="#FFFFFF">
                                        <polygon id="path27740" points="0 0 0 4.58449277 0.120693139 4.58449277 3.8081559 1.07514964 3.8081559 4.58449277 4.35414867 4.58449277 4.35414867 0 4.23000716 0 0.573579775 3.46487777 0.573579775 0"></polygon>
                                    </g>
                                    <g id="g27742" transform="translate(5.920074, 18.845983)" fill="#FFFFFF">
                                        <g id="g27744-Clipped" transform="translate(0.000000, 0.000000)">
                                            <g id="g27744" transform="translate(0.038798, 0.044366)">
                                                <g id="g27750" transform="translate(0.037298, 0.047527)">
                                                    <path d="M2.90758286,4.8954242 C3.74668754,4.8954242 4.44900666,4.66397629 5.01454023,4.19994034 C5.58122325,3.73704453 5.86399003,3.16697579 5.86399003,2.48973413 C5.86399003,1.81819316 5.58122325,1.24926457 5.01454023,0.781808202 C4.45245504,0.314351839 3.76507887,0.0806236572 2.95241174,0.0806236572 C2.13054894,0.0806236572 1.43742548,0.313211701 0.871891914,0.77838779 C0.306358349,1.24356388 0.0235915662,1.80679179 0.0235915662,2.46807152 C0.0235915662,2.90816459 0.151181456,3.3163338 0.407510694,3.69257917 C0.667288307,4.06882453 1.0190226,4.36298 1.46386302,4.57504557 C1.90870345,4.78825128 2.38917709,4.8954242 2.90758286,4.8954242 M2.9340204,4.44621003 C2.52366373,4.44621003 2.13629623,4.35841945 1.76846952,4.18169814 C1.40179227,4.00497683 1.11557711,3.76782824 0.909824044,3.46797208 C0.70292152,3.16925607 0.600619716,2.83519579 0.600619716,2.46807152 C0.600619716,1.92308581 0.827063034,1.46361041 1.28224859,1.08736504 C1.73973306,0.713399954 2.29032366,0.526417408 2.9340204,0.526417408 C3.36391787,0.526417408 3.76048104,0.611927719 4.12485937,0.785228614 C4.49268608,0.957389373 4.77775178,1.19339783 4.98120593,1.49211385 C5.186959,1.79197 5.29041026,2.12375001 5.29041026,2.48973413 C5.29041026,2.85343799 5.186959,3.18179758 4.98120593,3.47481291 C4.77775178,3.76896838 4.48923771,4.00497683 4.11796262,4.18169814 C3.74553808,4.35841945 3.35127383,4.44621003 2.9340204,4.44621003" id="path27752"></path>
                                                </g>
                                                <g id="g27754" transform="translate(7.104081, 0.200681)">
                                                    <path d="M0,4.62700315 L1.10462959,4.62700315 C1.72073932,4.62700315 2.13799275,4.60648067 2.35638986,4.56429558 C2.68513498,4.50272816 2.9529588,4.36819194 3.15986132,4.16296719 C3.36561439,3.95888259 3.46906565,3.70805234 3.46906565,3.40819619 C3.46906565,3.15964622 3.39664977,2.93959969 3.25411692,2.75033687 C3.11273353,2.56221419 2.91042884,2.41855686 2.64720285,2.32050504 C2.3828274,2.22473349 2.01844907,2.17684772 1.55291839,2.17456744 L3.54837829,0.0425103738 L2.86215158,0.0425103738 L0.871289518,2.17456744 L0.554038981,2.17456744 L0.554038981,0.0425103738 L0,0.0425103738 L0,4.62700315 Z M0.554038981,4.17778898 L0.554038981,2.6203612 L1.50808951,2.61352037 C1.87706568,2.61352037 2.15063679,2.64316395 2.32650394,2.70131096 C2.50467,2.75945797 2.64260501,2.8518091 2.74145844,2.97836436 C2.84146133,3.1071999 2.8920375,3.25085722 2.8920375,3.40819619 C2.8920375,3.56211475 2.84146133,3.70121152 2.74145844,3.82662664 C2.6403061,3.9531819 2.50811837,4.04325276 2.34489527,4.09683922 C2.18167217,4.15156582 1.91039997,4.17778898 1.53107868,4.17778898 L0.554038981,4.17778898 Z" id="path27756"></path>
                                                </g>
                                            </g>
                                        </g>
                                    </g>
                                    <g id="g27758" transform="translate(17.275949, 19.114436)" fill="#FFFFFF">
                                        <polygon id="path27760" points="0 4.15791831 0 4.60371206 3.04261656 4.60371206 3.04261656 4.15791831 1.80579925 4.15791831 1.80579925 0.0192192854 1.24026569 0.0192192854 1.24026569 4.15791831"></polygon>
                                    </g>
                                    <g id="g27762" transform="translate(21.167440, 19.091030)" fill="#FFFFFF">
                                        <polygon id="path27764" points="0 4.62700315 0.557487356 4.62700315 0.557487356 2.70473137 3.37825843 2.70473137 3.37825843 4.62700315 3.93574579 4.62700315 3.93574579 0.0425103738 3.37825843 0.0425103738 3.37825843 2.25551721 0.557487356 2.25551721 0.557487356 0.0425103738 0 0.0425103738"></polygon>
                                    </g>
                                    <g id="g27766" transform="translate(0.491786, 12.819590)" fill="#FFFFFF">
                                        <polygon id="path27768" points="0 4.62700315 3.17825266 4.62700315 3.17825266 4.17550871 0.554038981 4.17550871 0.554038981 2.74121577 3.15526349 2.74121577 3.15526349 2.29314174 0.554038981 2.29314174 0.554038981 0.49514495 3.15526349 0.49514495 3.15526349 0.0425103738 0 0.0425103738"></polygon>
                                    </g>
                                    <g id="g27770" transform="translate(7.005647, 12.819590)" fill="#FFFFFF">
                                        <path d="M2.77238472,4.62700315 L5.35866627,0.0425103738 L4.76324679,0.0425103738 L3.89195727,1.55091225 L1.50223312,1.55091225 L0.634391976,0.0425103738 L0.0159833208,0.0425103738 L2.63674862,4.62700315 L2.77238472,4.62700315 Z M2.70456667,3.65446588 L1.75051615,1.99328559 L3.64712262,1.99328559 L2.70456667,3.65446588 Z" id="path27772"></path>
                                    </g>
                                    <g id="g27774" transform="translate(15.463229, 12.620156)" fill="#FFFFFF">
                                        <g id="g27776-Clipped" transform="translate(-0.000000, 0.000000)">
                                            <g id="g27776" transform="translate(0.029580, 0.032664)">
                                                <g id="g27782" transform="translate(0.042514, 0.057544)">
                                                    <path d="M0,1.00592694 L0.471277971,1.23965513 C0.803471468,0.734574227 1.18624114,0.482603846 1.62073644,0.482603846 C1.80694871,0.482603846 1.9816664,0.517948107 2.1448895,0.58863663 C2.3081126,0.660465291 2.43340357,0.757376976 2.5184635,0.878231548 C2.60352343,0.99908612 2.64605339,1.12678152 2.64720285,1.26131774 C2.64720285,1.4152363 2.58398263,1.56573444 2.45869166,1.71281218 C2.28512343,1.91689678 1.96787289,2.16202634 1.50808951,2.44934098 C1.0460072,2.73779576 0.757493129,2.94644092 0.6448462,3.07527646 C0.448288802,3.29076244 0.350584832,3.52449062 0.350584832,3.776461 C0.350584832,3.97598506 0.408057756,4.15726692 0.524153061,4.32144671 C0.640248366,4.48562651 0.80232201,4.61446204 1.01037399,4.70795331 C1.22187435,4.80372486 1.45061658,4.85161064 1.6966007,4.85161064 C1.95752777,4.85161064 2.20121296,4.79802417 2.42765628,4.68971111 C2.65639852,4.58367833 2.89778479,4.38757468 3.15181511,4.10026004 L2.70007794,3.81636581 C2.4908765,4.04553344 2.31271043,4.19603159 2.16443029,4.26900039 C2.01844907,4.34196919 1.85867434,4.37731345 1.68510611,4.37731345 C1.46096171,4.37731345 1.27819781,4.32144671 1.13451551,4.20971324 C0.994281573,4.09797977 0.924164607,3.958883 0.924164607,3.7947032 C0.924164607,3.69551124 0.948303235,3.59859955 0.998879407,3.50510828 C1.04945558,3.41161701 1.14141226,3.31014477 1.27474944,3.19955144 C1.34716532,3.14140443 1.58625268,2.98862601 1.99086206,2.74235631 C2.47018624,2.44934098 2.80008082,2.1882495 2.97824689,1.95908187 C3.15641295,1.73105438 3.24607071,1.50188674 3.24607071,1.27043884 C3.24607071,0.938658834 3.09319273,0.649063916 2.78628732,0.40393436 C2.48168083,0.158804804 2.1115552,0.0368100944 1.67361153,0.0368100944 C1.3368202,0.0368100944 1.0322137,0.11091903 0.757493129,0.257996764 C0.483922014,0.407354772 0.231041152,0.657044879 0,1.00592694" id="path27784"></path>
                                                </g>
                                            </g>
                                        </g>
                                    </g>
                                    <g id="g27786" transform="translate(22.287818, 12.842995)" fill="#FFFFFF">
                                        <polygon id="path27788" points="0 4.15791831 0 4.60371206 3.04261656 4.60371206 3.04261656 4.15791831 1.80579925 4.15791831 1.80579925 0.0192192854 1.24026569 0.0192192854 1.24026569 4.15791831"></polygon>
                                    </g>
                                    <g id="g27790" transform="translate(0.491786, 6.552597)" fill="#FFFFFF">
                                        <polygon id="path27792" points="0 4.62700315 0.465530679 4.62700315 0.465530679 0.484883713 2.24029455 0.484883713 2.24029455 0.0425103738 0 0.0425103738"></polygon>
                                    </g>
                                    <polygon id="path27794" fill="#FFFFFF" points="4.63075624 6.59510696 5.13075624 6.59510696 5.13075624 11.1795997 4.63075624 11.1795997"></polygon>
                                    <g id="g27796" transform="translate(7.388652, 6.595335)" fill="#FFFFFF">
                                        <polygon id="path27798" points="0 0 0 4.58449277 0.100002887 4.58449277 3.17365483 1.07514964 3.17365483 4.58449277 3.62884038 4.58449277 3.62884038 0 3.52538912 0 0.477025264 3.46601791 0.477025264 0"></polygon>
                                    </g>
                                    <g id="g27800" transform="translate(13.043985, 6.310078)" fill="#FFFFFF">
                                        <g id="g27802-Clipped" transform="translate(-0.000000, 0.000000)">
                                            <g id="g27802" transform="translate(0.014710, 0.038760)">
                                                <g id="g27808" transform="translate(0.026673, 0.090494)">
                                                    <path d="M4.59783387,3.88949725 L4.23345553,3.61244385 C4.0323003,3.87125505 3.78976456,4.06849884 3.50699778,4.20075478 C3.22652992,4.33643114 2.91732559,4.40369925 2.58053426,4.40369925 C2.21155809,4.40369925 1.87016892,4.31590867 1.55636676,4.13918736 C1.2425646,3.96474633 0.997729949,3.72873787 0.82416172,3.43116199 C0.652892409,3.13586638 0.566683024,2.80408638 0.566683024,2.43468184 C0.566683024,1.87487434 0.759792046,1.40855812 1.14486063,1.03459303 C1.53222814,0.660627935 2.02074798,0.473645389 2.60927072,0.473645389 C3.25641584,0.473645389 3.79781077,0.725615771 4.23345553,1.2284164 L4.59783387,0.953643265 C4.36679271,0.66290821 4.0794281,0.43716099 3.7334411,0.277541744 C3.38975302,0.120202773 3.00583389,0.0403931504 2.58053426,0.0403931504 C1.77246496,0.0403931504 1.13451551,0.307185319 0.667835369,0.841909793 C0.275870032,1.29226409 0.0793126342,1.83724981 0.0793126342,2.47458665 C0.0793126342,3.14612762 0.316101078,3.70935553 0.789677966,4.16655066 C1.26555377,4.62602606 1.8598238,4.85519369 2.57478696,4.85519369 C3.00583389,4.85519369 3.39550031,4.77082352 3.74263677,4.5998029 C4.09092268,4.43220269 4.37598838,4.1950541 4.59783387,3.88949725" id="path27810"></path>
                                                </g>
                                                <g id="g27812" transform="translate(6.485173, 0.050606)">
                                                    <path d="M2.50198845,4.8954242 C3.20200866,4.8954242 3.78708302,4.66397629 4.25836099,4.19994034 C4.72963896,3.73704453 4.96527795,3.16697579 4.96527795,2.48973413 C4.96527795,1.81819316 4.72963896,1.24926457 4.25836099,0.781808202 C3.78938194,0.314351839 3.21580216,0.0806236572 2.53992058,0.0806236572 C1.85484334,0.0806236572 1.27666573,0.313211701 0.805387756,0.77838779 C0.334109785,1.24356388 0.0984707996,1.80679179 0.0984707996,2.46807152 C0.0984707996,2.90816459 0.205370437,3.3163338 0.419169712,3.69257917 C0.634118445,4.06882453 0.928379812,4.36298 1.29850544,4.57390543 C1.66978052,4.78825128 2.07094153,4.8954242 2.50198845,4.8954242 M2.52382816,4.44621003 C2.182439,4.44621003 1.85944117,4.35841945 1.55368522,4.18169814 C1.24677981,4.00497683 1.0088419,3.76782824 0.836423135,3.46797208 C0.665153824,3.16925607 0.578944439,2.83519579 0.578944439,2.46807152 C0.578944439,1.92308581 0.768605086,1.46361041 1.14792638,1.08736504 C1.52954659,0.713399954 1.98818052,0.526417408 2.52382816,0.526417408 C2.88245921,0.526417408 3.21350324,0.611927719 3.51696028,0.785228614 C3.82271623,0.957389373 4.06065413,1.19339783 4.22962453,1.49211385 C4.4020433,1.79197 4.48710322,2.12375001 4.48710322,2.48973413 C4.48710322,2.85343799 4.4020433,3.18179758 4.22962453,3.47481291 C4.06065413,3.76896838 3.82041731,4.00497683 3.51006353,4.18169814 C3.2008592,4.35841945 2.87211408,4.44621003 2.52382816,4.44621003" id="path27814"></path>
                                                </g>
                                            </g>
                                        </g>
                                    </g>
                                    <g id="g27816" transform="translate(26.669323, 6.552597)" fill="#FFFFFF">
                                        <polygon id="path27818" points="0 4.62700315 0.465530679 4.62700315 0.465530679 0.484883713 2.24029455 0.484883713 2.24029455 0.0425103738 0 0.0425103738"></polygon>
                                    </g>
                                    <g id="g27820" transform="translate(30.878066, 6.595335)" fill="#FFFFFF">
                                        <polygon id="path27822" points="0 0 0 4.58449277 0.100002887 4.58449277 3.17365483 1.07514964 3.17365483 4.58449277 3.62884038 4.58449277 3.62884038 0 3.52538912 0 0.477025264 3.46601791 0.477025264 0"></polygon>
                                    </g>
                                    <g id="g27824" transform="translate(36.307115, 6.310078)" fill="#FFFFFF">
                                        <g id="g27826-Clipped" transform="translate(-0.000000, 0.000000)">
                                            <g id="g27826" transform="translate(0.011145, 0.038760)">
                                                <g id="g27832" transform="translate(0.072378, 0.094533)">
                                                    <path d="M0,1.00592694 L0.393114796,1.23965513 C0.668984827,0.734574227 0.988534281,0.482603846 1.3506137,0.482603846 C1.50579059,0.482603846 1.65177182,0.517948107 1.78740792,0.58863663 C1.92419347,0.660465291 2.02764473,0.757376976 2.09891116,0.878231548 C2.17017758,0.99908612 2.2058108,1.12678152 2.2058108,1.26131774 C2.2058108,1.4152363 2.15293571,1.56573444 2.04833499,1.71395231 C1.90350322,1.91689678 1.64027723,2.16202634 1.2563581,2.44934098 C0.871289518,2.73779576 0.631052698,2.94644092 0.536797104,3.07527646 C0.373574002,3.29076244 0.29196245,3.52449062 0.29196245,3.776461 C0.29196245,3.97598506 0.340239706,4.15726692 0.436794217,4.32144671 C0.533348728,4.48562651 0.667835369,4.61446204 0.842553056,4.70795331 C1.0184202,4.80372486 1.20808085,4.85161064 1.41383391,4.85161064 C1.63108156,4.85161064 1.83453571,4.79802417 2.0230469,4.68971111 C2.21385701,4.58367833 2.41501224,4.38757468 2.6265126,4.10026004 L2.24949022,3.81636581 C2.07592199,4.04553344 1.92649239,4.19603159 1.80350033,4.26900039 C1.68165774,4.34196919 1.54947001,4.37731345 1.40463825,4.37845358 C1.21842597,4.37845358 1.065548,4.32144671 0.946004318,4.20971324 C0.828759554,4.09683963 0.770137173,3.958883 0.770137173,3.7947032 C0.770137173,3.69551124 0.790827425,3.59859955 0.83220793,3.50510828 C0.874737893,3.41161701 0.950602152,3.31014477 1.06209962,3.19955144 C1.12302092,3.14140443 1.32187724,2.98862601 1.65866857,2.74121618 C2.05868011,2.44934098 2.33340069,2.1882495 2.48168083,1.95908187 C2.63111043,1.73105438 2.70467577,1.50188674 2.70467577,1.27043884 C2.70467577,0.938658834 2.57708588,0.649063916 2.3219061,0.40393436 C2.06787578,0.158804804 1.75982091,0.0368100944 1.39544258,0.0368100944 C1.11382525,0.0368100944 0.859794933,0.11091903 0.631052698,0.257996764 C0.403459922,0.407354772 0.193109022,0.657044879 0,1.00592694" id="path27834"></path>
                                                </g>
                                            </g>
                                        </g>
                                    </g>
                                    <g id="g27836" transform="translate(41.299976, 6.552597)" fill="#FFFFFF">
                                        <polygon id="path27838" points="0 4.62700315 0.465530679 4.62700315 0.465530679 2.70473137 2.81502378 2.70473137 2.81502378 4.62700315 3.28055446 4.62700315 3.28055446 0.0425103738 2.81502378 0.0425103738 2.81502378 2.25551721 0.465530679 2.25551721 0.465530679 0.0425103738 0 0.0425103738"></polygon>
                                    </g>
                                    <polygon id="path27840" fill="#FFFFFF" points="46.8687571 6.59510696 47.3687571 6.59510696 47.3687571 11.1795997 46.8687571 11.1795997"></polygon>
                                    <g id="g27842" transform="translate(49.572573, 6.528539)" fill="#FFFFFF">
                                        <g id="g27844-Clipped">
                                            <g id="g27844" transform="translate(0.049611, 0.038760)">
                                                <g id="g27850" transform="translate(0.026193, 0.019203)">
                                                    <path d="M0,4.59309733 L0.920716232,4.59309733 C1.43337471,4.59309733 1.78166062,4.57257485 1.96327506,4.53038977 C2.23799563,4.46882234 2.46099058,4.33428612 2.63340935,4.12906138 C2.80467866,3.92497677 2.89088804,3.67414653 2.89088804,3.37429037 C2.89088804,3.1257404 2.8311162,2.90569387 2.71157252,2.71643105 C2.59432776,2.52830837 2.42535736,2.38465105 2.2058108,2.28659922 C1.98511477,2.19082768 1.68165774,2.1429419 1.29429023,2.14066163 L2.95640718,0.00860455659 L2.38512632,0.00860455659 L0.725308292,2.14066163 L0.462082304,2.14066163 L0.462082304,0.00860455659 L0,0.00860455659 L0,4.59309733 Z M0.462082304,4.14388316 L0.462082304,2.58645538 L1.2563581,2.57961455 C1.56441297,2.57961455 1.79200575,2.60925813 1.93913643,2.66740514 C2.08741658,2.72555215 2.20236242,2.81790329 2.28397397,2.94445854 C2.36788444,3.07329408 2.40926495,3.2169514 2.40926495,3.37429037 C2.40926495,3.52820893 2.36788444,3.6673057 2.28397397,3.79272082 C2.2000635,3.91927608 2.09086495,4.00934694 1.95407939,4.0629334 C1.81844329,4.11766 1.59199998,4.14388316 1.2758989,4.14388316 L0.462082304,4.14388316 Z" id="path27852"></path>
                                                </g>
                                            </g>
                                        </g>
                                    </g>
                                    <g id="g27854" transform="translate(54.745076, 6.552027)" fill="#182D32">
                                        <polygon id="path27856" points="0 4.62700315 2.64835231 4.62700315 2.64835231 4.17550871 0.462082304 4.17550871 0.462082304 2.74121577 2.62996097 2.74121577 2.62996097 2.29314174 0.462082304 2.29314174 0.462082304 0.49514495 2.62996097 0.49514495 2.62996097 0.0425103738 0 0.0425103738"></polygon>
                                    </g>
                                </g>
                            </g>
                        </g>
                    </g>
                </g>
            </g>
        </g>
    </g>
</svg>