<?xml version="1.0" encoding="UTF-8"?>
<svg width="90px" height="25px" viewBox="0 0 90 25" version="1.1" xmlns="http://www.w3.org/2000/svg" xmlns:xlink="http://www.w3.org/1999/xlink">
    <!-- Generator: Sketch 48.2 (47327) - http://www.bohemiancoding.com/sketch -->
    <title>Nesta</title>
    <desc>Created with Sketch.</desc>
    <defs>
        <polygon id="path-1" points="0.5540009 0.115352686 17.6791526 0.115352686 17.6791526 25 0.5540009 25"></polygon>
    </defs>
    <g id="web5" stroke="none" stroke-width="1" fill="none" fill-rule="evenodd" transform="translate(-711.000000, -608.000000)">
        <g id="Group-5" transform="translate(411.000000, 557.000000)">
            <g id="Page-1" transform="translate(0.000000, 45.000000)">
                <g id="Nesta" transform="translate(300.500000, 6.000000)">
                    <g id="Group-3" transform="translate(66.000000, 0.000000)">
                        <mask id="mask-2" fill="white">
                            <use xlink:href="#path-1"></use>
                        </mask>
                        <g id="Clip-2"></g>
                        <path d="M10.6057182,24.9810714 C10.6057182,23.8167857 10.5780818,22.7114286 10.6160818,21.6078571 C10.6368091,21.0203571 10.4727182,20.8007143 9.87162727,20.7614286 C2.29580909,20.2757143 -1.99300909,11.3578571 2.1939,4.81142857 C3.96608182,2.04357143 6.46717273,0.507857143 9.65917273,0.129285714 C10.3449,0.0471428571 10.4848091,0.329285714 10.4813545,0.947142857 C10.4658091,3.72035714 10.4727182,6.49178571 10.4779,9.26678571 C10.4779,9.64 10.5107182,10.015 10.5279909,10.3739286 C15.2987182,11.2060714 18.1089909,14.3685714 17.6253545,18.3025 C17.1279,22.3489286 14.1172636,25.265 10.6057182,24.9810714" id="Fill-1" fill="#182D32" mask="url(#mask-2)"></path>
                    </g>
                    <path d="M53.4930054,15.0808795 C53.5016221,13.4159758 52.4796821,12.3468204 50.8907637,12.3592318 C49.3656088,12.3716432 48.3540089,13.4106566 48.3419455,14.9709497 C48.3316055,16.5489734 49.3897355,17.6500439 50.9166138,17.6482709 C52.4469387,17.6464978 53.4843887,16.6110305 53.4930054,15.0808795 Z M53.5274722,20.5507707 C53.4878354,20.3486418 53.4499219,20.1553782 53.4085618,19.944384 C53.3103315,19.9567954 53.2103778,19.9390648 53.155231,19.9816183 C51.4198287,21.2706332 49.5706861,21.2865907 47.7508403,20.3078614 C45.9258244,19.327359 45.1382585,17.6039443 45.0193481,15.538329 C44.881481,13.1659743 45.4553529,11.0702169 47.5509329,9.78297511 C49.4569457,8.61098222 51.411212,8.83793394 53.1810811,9.91240852 C54.4149917,8.97800571 55.7316226,9.69964127 57,9.39290183 L57,20.5507707 L53.5274722,20.5507707 Z" id="Fill-4" fill="#182D32"></path>
                    <path d="M11.9867144,20 L7.92121443,20 C7.92121443,18.8569487 7.92121443,17.7324974 7.92121443,16.6080461 C7.92121443,15.6662125 7.9356824,14.7260697 7.91578894,13.785927 C7.89408699,12.7899844 7.380474,12.1812589 6.50516172,12.0612047 C5.28623511,11.8954961 4.49953916,12.303004 4.16496731,13.3310738 C4.04741505,13.6929273 4.00762812,14.0869079 4.00401113,14.4690523 C3.98773466,16.2901561 3.99677715,18.11126 3.99677715,19.9864728 L0,19.9864728 L0,9.46397581 L3.96060722,9.46397581 C3.98230917,9.72099325 4.00220263,9.96448346 4.03113858,10.2789916 C4.17762679,10.2130464 4.31145553,10.1826101 4.40007185,10.1048285 C5.7510187,8.93641369 7.376857,8.83834125 9.04609922,9.15623124 C10.8582127,9.5028666 11.934268,10.9350625 11.9758635,13.0131838 C12.0228844,15.3077408 11.9867144,17.6039887 11.9867144,20" id="Fill-6" fill="#182D32"></path>
                    <path d="M17.9394251,13.4162085 L22.3859418,13.4162085 C22.1853878,12.3702394 21.35607,11.6152139 20.3587204,11.5402468 C19.2854856,11.45814 18.3513738,12.150693 17.9394251,13.4162085 M25.9272554,15.7526822 L17.8057224,15.7526822 C17.713576,16.70405 18.2068304,17.3109263 18.8717301,17.7642986 C19.7209226,18.3408311 20.8013846,18.4729159 21.5186813,17.8142766 C22.8502875,16.5969542 24.3571526,17.0485416 25.835109,16.9592951 C25.7339286,19.1012113 23.0490347,21.2734715 19.5330162,20.9718182 C15.7694671,20.6505308 13.6229974,17.9035232 14.0548208,13.9606122 C14.4306337,10.5424708 17.3359563,8.58261742 21.2982526,9.07525816 C24.2541654,9.44295379 26.4313505,12.5130338 25.9272554,15.7526822" id="Fill-8" fill="#182D32"></path>
                    <path d="M26,19.1515039 C26.5938223,18.2576872 27.1363922,17.4407386 27.7125412,16.5737363 C27.9387593,16.7328357 28.1066555,16.8829969 28.2992943,16.9831044 C28.9125572,17.2995156 29.5152162,17.6498917 30.1567564,17.8894346 C31.0280494,18.2147839 31.8834363,18.0038432 31.9771047,17.4693408 C32.1485356,16.482567 31.2931486,16.4718412 30.7134649,16.2626881 C30.0931326,16.0392339 29.4197805,15.9623657 28.8135868,15.7138846 C27.6100362,15.2187101 26.7599512,14.3463449 26.7086987,12.97523 C26.6574462,11.6094779 27.1752734,10.4457285 28.4017993,9.75212668 C30.5667766,8.52938532 32.7370559,8.97808134 34.8896619,9.82005675 C35.1229493,9.91122606 35.3332614,10.0613873 35.584222,10.2008227 C35.0699294,10.9695051 34.5697755,11.716736 34.0713889,12.4586039 C33.3874328,12.2315744 32.726452,11.9956068 32.0530998,11.8007547 C31.8463224,11.7399752 31.5706192,11.7256741 31.3885843,11.8150558 C31.1040445,11.9580665 30.8707571,12.2065476 30.6162618,12.4103378 C30.8318759,12.6498807 31.0050741,13.0002569 31.273708,13.1093025 C31.8268818,13.3327567 32.4330754,13.4221384 33.0162938,13.5740872 C34.986865,14.0889257 35.955361,15.1043016 35.9977769,16.6970831 C36.0507967,18.7564369 35.1565285,20.102525 33.200096,20.6835059 C30.568544,21.4664894 28.2286011,20.7371349 26,19.1515039" id="Fill-10" fill="#182D32"></path>
                    <path d="M38.6407837,12.4411907 C38.021045,12.3829406 37.535075,12.3349699 37,12.285286 L37,9.38819932 C37.067731,9.34879483 37.1134494,9.30253738 37.1591679,9.30082414 C38.6136913,9.21858868 38.6136913,9.21858868 38.6136913,7.73149747 L38.6136913,6.00455283 C39.780358,6.00455283 40.9013062,5.98399396 42.0188679,6.03025141 C42.1492501,6.03710436 42.3609095,6.41059041 42.3727625,6.62303201 C42.4134011,7.47965137 42.3880019,8.33627074 42.3880019,9.28197852 L44,9.28197852 L44,12.2613007 C42.3896952,12.478882 42.3896952,12.478882 42.3896952,14.1578559 L42.3896952,20 L38.6407837,20 L38.6407837,12.4411907 Z" id="Fill-12" fill="#182D32"></path>
                    <path d="M89,2.50357548 C89,3.88571609 87.8900803,4.99821429 86.5107107,5 C85.1456165,5 84.003577,3.86428756 84.0000081,2.50357548 C83.9964392,1.17322049 85.1759519,-0.00356331463 86.5089262,8.10814907e-06 C87.8793737,0.00536524232 89,1.13036342 89,2.50357548" id="Fill-14" fill="#182D32"></path>
                    <path d="M64.95433,21.0000585 C65.9370431,20.9908813 67.0092633,22.0627828 66.9999396,23.0429119 C66.990616,23.9973448 66.0302796,24.9756384 65.0829964,24.9994993 C64.0294236,25.0251955 63.0094159,24.0579145 63.0000922,23.022722 C62.9889038,22.0536055 63.9977232,21.0092358 64.95433,21.0000585" id="Fill-16" fill="#182D32"></path>
                </g>
            </g>
        </g>
    </g>
</svg>