<?xml version="1.0" encoding="UTF-8"?>
<svg width="72px" height="33px" viewBox="0 0 72 33" version="1.1" xmlns="http://www.w3.org/2000/svg" xmlns:xlink="http://www.w3.org/1999/xlink">
    <!-- Generator: Sketch 48.2 (47327) - http://www.bohemiancoding.com/sketch -->
    <title>placeholder</title>
    <desc>Created with Sketch.</desc>
    <defs></defs>
    <g id="web5" stroke="none" stroke-width="1" fill="none" fill-rule="evenodd" transform="translate(-961.000000, -602.000000)">
        <g id="Group-5" transform="translate(411.000000, 557.000000)" fill="#FFFFFF">
            <g id="Page-1" transform="translate(0.000000, 45.000000)">
                <g id="placeholder" transform="translate(550.000000, 0.000000)">
                    <g id="Group-11" opacity="0.709662591">
                        <polygon id="[" points="0.174817718 0.491 7.89681772 0.491 7.89681772 3.221 3.25581772 3.221 3.25581772 30.248 7.89681772 30.248 7.89681772 32.978 0.174817718 32.978"></polygon>
                        <polygon id="]" points="71.0358177 32.978 63.3138177 32.978 63.3138177 30.248 67.9548177 30.248 67.9548177 3.221 63.3138177 3.221 63.3138177 0.491 71.0358177 0.491"></polygon>
                    </g>
                    <path d="M13.54,6.407 L15.113,9.256 L16.763,6.407 L18.292,6.407 L15.751,10.598 L15.751,13.546 L14.453,13.546 L14.453,10.598 L12,6.407 L13.54,6.407 Z M20.7476413,8.057 C21.1069764,8.057 21.4443064,8.11383276 21.7596413,8.2275 C22.0749762,8.34116724 22.3463068,8.51533216 22.5736413,8.75 C23.0796438,9.2633359 23.3326413,9.97466212 23.3326413,10.884 C23.3326413,11.7786711 23.0796438,12.4826641 22.5736413,12.996 C22.1189724,13.4653357 21.5103118,13.7 20.7476413,13.7 C19.9849708,13.7 19.368977,13.4653357 18.8996413,12.996 C18.3936388,12.4899975 18.1406413,11.7860045 18.1406413,10.884 C18.1406413,9.96732875 18.3936388,9.25600253 18.8996413,8.75 C19.3616436,8.28799769 19.9776374,8.057 20.7476413,8.057 Z M22.0346413,10.873 C22.0346413,10.3083305 21.9246424,9.88483474 21.7046413,9.6025 C21.4846402,9.32016525 21.1784766,9.179 20.7861413,9.179 C20.393806,9.179 20.0729759,9.32016525 19.8236413,9.6025 C19.5743067,9.88483474 19.4496413,10.3083305 19.4496413,10.873 C19.4496413,11.4376695 19.5614735,11.8611653 19.7851413,12.1435 C20.0088091,12.4258347 20.3149727,12.567 20.7036413,12.567 C21.0923099,12.567 21.4113067,12.4258347 21.6606413,12.1435 C21.9099759,11.8611653 22.0346413,11.4376695 22.0346413,10.873 Z M28.4722826,12.578 C28.1349476,13.2893369 27.5922863,13.645 26.8442826,13.645 C25.8982779,13.645 25.2749508,13.2746704 24.9742826,12.534 C24.864282,12.277332 24.8092826,11.9656685 24.8092826,11.599 L24.8092826,8.189 L26.1072826,8.189 L26.1072826,11.467 C26.1072826,11.8190018 26.1916151,12.0811658 26.3602826,12.2535 C26.5289501,12.4258342 26.7361147,12.512 26.9817826,12.512 C27.2274505,12.512 27.4346151,12.477167 27.6032826,12.4075 C27.7719501,12.337833 27.9186153,12.233334 28.0432826,12.094 C28.3146173,11.7786651 28.4576159,11.3570026 28.4722826,10.829 L28.4722826,8.189 L29.7702826,8.189 L29.7702826,13.546 L28.4722826,13.546 L28.4722826,12.578 Z M33.1609239,9.256 C33.4835922,8.48599615 33.9675873,8.101 34.6129239,8.101 C34.7375912,8.101 34.8952563,8.12666641 35.0859239,8.178 L35.0639239,9.476 C34.8585895,9.43199978 34.6569249,9.41 34.4589239,9.41 C33.5935862,9.41 33.1609239,10.0076607 33.1609239,11.203 L33.1609239,13.546 L31.8629239,13.546 L31.8629239,8.189 L33.1609239,8.189 L33.1609239,9.256 Z M39.3152065,6 L40.6132065,6 L40.6132065,13.546 L39.3152065,13.546 L39.3152065,6 Z M44.8068478,8.057 C45.1661829,8.057 45.5035129,8.11383276 45.8188478,8.2275 C46.1341827,8.34116724 46.4055133,8.51533216 46.6328478,8.75 C47.1388503,9.2633359 47.3918478,9.97466212 47.3918478,10.884 C47.3918478,11.7786711 47.1388503,12.4826641 46.6328478,12.996 C46.1781788,13.4653357 45.5695183,13.7 44.8068478,13.7 C44.0441773,13.7 43.4281835,13.4653357 42.9588478,12.996 C42.4528453,12.4899975 42.1998478,11.7860045 42.1998478,10.884 C42.1998478,9.96732875 42.4528453,9.25600253 42.9588478,8.75 C43.4208501,8.28799769 44.0368439,8.057 44.8068478,8.057 Z M46.0938478,10.873 C46.0938478,10.3083305 45.9838489,9.88483474 45.7638478,9.6025 C45.5438467,9.32016525 45.2376831,9.179 44.8453478,9.179 C44.4530125,9.179 44.1321824,9.32016525 43.8828478,9.6025 C43.6335132,9.88483474 43.5088478,10.3083305 43.5088478,10.873 C43.5088478,11.4376695 43.62068,11.8611653 43.8443478,12.1435 C44.0680156,12.4258347 44.3741792,12.567 44.7628478,12.567 C45.1515164,12.567 45.4705132,12.4258347 45.7198478,12.1435 C45.9691824,11.8611653 46.0938478,11.4376695 46.0938478,10.873 Z M49.4404891,11.357 C49.0078203,10.9903315 48.7914891,10.5320027 48.7914891,9.982 C48.7914891,9.40266377 49.0188201,8.93333513 49.4734891,8.574 C49.9134913,8.22933161 50.4176529,8.057 50.9859891,8.057 C51.5543253,8.057 52.0291538,8.16333227 52.4104891,8.376 C52.4544893,7.95799791 52.6341542,7.62066795 52.9494891,7.364 C53.2574906,7.10733205 53.620487,6.979 54.0384891,6.979 L53.9724891,8.222 C53.3418193,8.222 53.0154892,8.43099791 52.9934891,8.849 C53.2648238,9.18633502 53.4004891,9.53099824 53.4004891,9.883 C53.4004891,10.2350018 53.3381564,10.5301655 53.2134891,10.7685 C53.0888218,11.0068345 52.9201568,11.2066659 52.7074891,11.368 C52.2674869,11.7200018 51.7321589,11.896 51.1014891,11.896 C50.742154,11.896 50.4158239,11.8410006 50.1224891,11.731 C49.8291543,11.8190004 49.6824891,11.9949987 49.6824891,12.259 C49.6824891,12.5890017 49.961153,12.754 50.5184891,12.754 L52.3114891,12.754 C53.5288285,12.754 54.1374891,13.1793291 54.1374891,14.03 C54.1374891,14.3160014 54.0659898,14.5964986 53.9229891,14.8715 C53.7799884,15.1465014 53.5728238,15.3903323 53.3014891,15.603 C52.7001527,16.0723357 51.944827,16.307 51.0354891,16.307 C50.1554847,16.307 49.4404918,16.1273351 48.8904891,15.768 C48.3771532,15.4233316 48.1204891,15.0016692 48.1204891,14.503 C48.1204891,14.1729984 48.2213214,13.9108343 48.4229891,13.7165 C48.6246568,13.5221657 48.8904874,13.3993336 49.2204891,13.348 C48.7878203,13.0839987 48.5714891,12.7576686 48.5714891,12.369 C48.5714891,12.112332 48.6521549,11.8978342 48.8134891,11.7255 C48.9748232,11.5531658 49.1838211,11.4303337 49.4404891,11.357 Z M50.4304891,13.667 C49.7411523,13.6963335 49.3964891,13.9566642 49.3964891,14.448 C49.3964891,14.6973346 49.541321,14.8971659 49.8309891,15.0475 C50.1206572,15.1978341 50.4634871,15.273 50.8594891,15.273 C51.2554911,15.273 51.5653213,15.2400003 51.7889891,15.174 C52.0126569,15.1079997 52.2014883,15.0200005 52.3554891,14.91 C52.6854907,14.6899989 52.8504891,14.4260015 52.8504891,14.118 C52.8504891,13.9859993 52.8046562,13.8778338 52.7129891,13.7935 C52.621322,13.7091662 52.48749,13.667 52.3114891,13.667 L50.4304891,13.667 Z M52.1134891,9.971 C52.1134891,9.67033183 52.0309899,9.42650093 51.8659891,9.2395 C51.7009883,9.05249906 51.4498241,8.959 51.1124891,8.959 C50.7751541,8.959 50.51849,9.05249906 50.3424891,9.2395 C50.1664882,9.42650093 50.0784891,9.66849851 50.0784891,9.9655 C50.0784891,10.2625015 50.1664882,10.5063324 50.3424891,10.697 C50.51849,10.8876676 50.7751541,10.983 51.1124891,10.983 C51.4498241,10.983 51.7009883,10.8876676 51.8659891,10.697 C52.0309899,10.5063324 52.1134891,10.2643348 52.1134891,9.971 Z M57.5281304,8.057 C57.8874655,8.057 58.2247955,8.11383276 58.5401304,8.2275 C58.8554653,8.34116724 59.1267959,8.51533216 59.3541304,8.75 C59.8601329,9.2633359 60.1131304,9.97466212 60.1131304,10.884 C60.1131304,11.7786711 59.8601329,12.4826641 59.3541304,12.996 C58.8994614,13.4653357 58.2908009,13.7 57.5281304,13.7 C56.7654599,13.7 56.1494661,13.4653357 55.6801304,12.996 C55.1741279,12.4899975 54.9211304,11.7860045 54.9211304,10.884 C54.9211304,9.96732875 55.1741279,9.25600253 55.6801304,8.75 C56.1421327,8.28799769 56.7581265,8.057 57.5281304,8.057 Z M58.8151304,10.873 C58.8151304,10.3083305 58.7051315,9.88483474 58.4851304,9.6025 C58.2651293,9.32016525 57.9589657,9.179 57.5666304,9.179 C57.1742951,9.179 56.853465,9.32016525 56.6041304,9.6025 C56.3547958,9.88483474 56.2301304,10.3083305 56.2301304,10.873 C56.2301304,11.4376695 56.3419626,11.8611653 56.5656304,12.1435 C56.7892982,12.4258347 57.0954618,12.567 57.4841304,12.567 C57.872799,12.567 58.1917958,12.4258347 58.4411304,12.1435 C58.690465,11.8611653 58.8151304,11.4376695 58.8151304,10.873 Z M26.9336032,22.069 C27.3002717,21.39433 27.8355997,21.057 28.5396032,21.057 C29.2436068,21.057 29.7624349,21.2733312 30.0961032,21.706 C30.4297716,22.1386688 30.5966032,22.7106631 30.5966032,23.422 L30.5966032,26.546 L29.2986032,26.546 L29.2986032,23.422 C29.2986032,23.025998 29.2032709,22.7271677 29.0126032,22.5255 C28.8219356,22.3238323 28.5542716,22.223 28.2096032,22.223 C27.8649349,22.223 27.5697711,22.3769985 27.3241032,22.685 C27.0784353,22.9930015 26.94827,23.4549969 26.9336032,24.071 L26.9336032,26.546 L25.6356032,26.546 L25.6356032,19 L26.9336032,19 L26.9336032,22.069 Z M36.2642445,21.838 C36.4475788,22.0726678 36.5850774,22.3439985 36.6767445,22.652 C36.7684117,22.9600015 36.8142445,23.242332 36.8142445,23.499 C36.8142445,23.7556679 36.799578,23.9866656 36.7702445,24.192 L33.3162445,24.192 C33.3309113,24.6246688 33.4372436,24.9766653 33.6352445,25.248 C33.8332455,25.5193347 34.1339092,25.655 34.5372445,25.655 C35.0725806,25.655 35.3915774,25.4203357 35.4942445,24.951 L36.8032445,24.951 C36.7152441,25.486336 36.4695799,25.9079985 36.0662445,26.216 C35.6482425,26.5386683 35.1385809,26.7 34.5372445,26.7 C33.833241,26.7 33.2429136,26.4433359 32.7662445,25.93 C32.2749088,25.394664 32.0292445,24.7090042 32.0292445,23.873 C32.0292445,23.0149957 32.2749088,22.3256693 32.7662445,21.805 C33.2355802,21.3063308 33.8259077,21.057 34.5372445,21.057 C35.2779149,21.057 35.8535758,21.3173307 36.2642445,21.838 Z M34.5482445,22.091 C34.181576,22.091 33.8955789,22.2101655 33.6902445,22.4485 C33.4849102,22.6868345 33.3639114,22.9929981 33.3272445,23.367 L35.6042445,23.367 C35.6042445,22.7876638 35.420913,22.399001 35.0542445,22.201 C34.9149105,22.1276663 34.7462455,22.091 34.5482445,22.091 Z M39.7098858,22.256 C40.0325541,21.4859962 40.5165493,21.101 41.1618858,21.101 C41.2865531,21.101 41.4442182,21.1266664 41.6348858,21.178 L41.6128858,22.476 C41.4075515,22.4319998 41.2058868,22.41 41.0078858,22.41 C40.1425482,22.41 39.7098858,23.0076607 39.7098858,24.203 L39.7098858,26.546 L38.4118858,26.546 L38.4118858,21.189 L39.7098858,21.189 L39.7098858,22.256 Z M46.7635271,21.838 C46.9468614,22.0726678 47.08436,22.3439985 47.1760271,22.652 C47.2676943,22.9600015 47.3135271,23.242332 47.3135271,23.499 C47.3135271,23.7556679 47.2988606,23.9866656 47.2695271,24.192 L43.8155271,24.192 C43.8301939,24.6246688 43.9365261,24.9766653 44.1345271,25.248 C44.3325281,25.5193347 44.6331918,25.655 45.0365271,25.655 C45.5718631,25.655 45.89086,25.4203357 45.9935271,24.951 L47.3025271,24.951 C47.2145267,25.486336 46.9688625,25.9079985 46.5655271,26.216 C46.147525,26.5386683 45.6378635,26.7 45.0365271,26.7 C44.3325236,26.7 43.7421962,26.4433359 43.2655271,25.93 C42.7741913,25.394664 42.5285271,24.7090042 42.5285271,23.873 C42.5285271,23.0149957 42.7741913,22.3256693 43.2655271,21.805 C43.7348628,21.3063308 44.3251902,21.057 45.0365271,21.057 C45.7771975,21.057 46.3528584,21.3173307 46.7635271,21.838 Z M45.0475271,22.091 C44.6808586,22.091 44.3948615,22.2101655 44.1895271,22.4485 C43.9841928,22.6868345 43.863194,22.9929981 43.8265271,23.367 L46.1035271,23.367 C46.1035271,22.7876638 45.9201956,22.399001 45.5535271,22.201 C45.4141931,22.1276663 45.2455281,22.091 45.0475271,22.091 Z" id="Your-logo-here"></path>
                </g>
            </g>
        </g>
    </g>
</svg>