<?xml version="1.0" encoding="UTF-8"?>
<svg width="228px" height="74px" viewBox="0 0 228 74" version="1.1" xmlns="http://www.w3.org/2000/svg" xmlns:xlink="http://www.w3.org/1999/xlink">
    <!-- Generator: Sketch 48.2 (47327) - http://www.bohemiancoding.com/sketch -->
    <title>fa_logo_center_black</title>
    <desc>Created with Sketch.</desc>
    <defs></defs>
    <g id="Website" stroke="none" stroke-width="1" fill="none" fill-rule="evenodd">
        <g id="fa_logo_center_black" fill="#182D32">
            <g id="Academy" transform="translate(0.000000, 42.000000)">
                <path d="M9.9202316,19.7419193 L7.88386353,25.362891 L15.0974295,25.362891 C15.0950617,25.362891 15.0926947,25.3628881 15.0903283,25.3628824 L7.88531471,25.3628824 L6.63767928,28.9273956 C6.22180081,30.2069644 4.92795667,31.1209422 3.49548636,31.1209422 C1.64713759,31.1209422 0.168458564,29.6585778 0.168458564,27.8306223 C0.168458564,27.4193323 0.260876002,27.0080423 0.399502161,26.6881501 L9.41020245,3.65591098 C10.2419594,1.50806328 12.3213518,0 14.8166226,0 C17.2656848,0 19.3912858,1.50806328 20.2230428,3.65591098 L29.1875344,26.6881501 C29.3261605,27.0080423 29.4647867,27.4193323 29.4647867,27.8306223 C29.4647867,29.6585778 27.9398989,31.1209422 26.0915502,31.1209422 C24.6590799,31.1209422 23.4114444,30.2069644 22.995566,28.9273956 L21.7479305,25.3628824 L15.0903283,25.3628824 C13.5231091,25.3590938 12.253816,24.101467 12.253816,22.5506518 C12.253816,21.0450046 13.4502487,19.815716 14.9541731,19.7419193 L19.7147469,19.7419193 L14.8166226,5.94085534 L9.91849836,19.7419193 L9.9202316,19.7419193 Z" id="Combined-Shape"></path>
                <path d="M73.5460837,19.7419193 L71.5097157,25.362891 L78.7232816,25.362891 C78.7209139,25.362891 78.7185468,25.3628881 78.7161805,25.3628824 L71.5111669,25.3628824 L70.2635314,28.9273956 C69.847653,30.2069644 68.5538088,31.1209422 67.1213385,31.1209422 C65.2729897,31.1209422 63.7943107,29.6585778 63.7943107,27.8306223 C63.7943107,27.4193323 63.8867281,27.0080423 64.0253543,26.6881501 L73.0360546,3.65591098 C73.8678115,1.50806328 75.9472039,0 78.4424748,0 C80.8915369,0 83.017138,1.50806328 83.8488949,3.65591098 L92.8133865,26.6881501 C92.9520127,27.0080423 93.0906388,27.4193323 93.0906388,27.8306223 C93.0906388,29.6585778 91.5657511,31.1209422 89.7174023,31.1209422 C88.284932,31.1209422 87.0372966,30.2069644 86.6214181,28.9273956 L85.3737827,25.3628824 L78.7161805,25.3628824 C77.1489613,25.3590938 75.8796681,24.101467 75.8796681,22.5506518 C75.8796681,21.0450046 77.0761008,19.815716 78.5800253,19.7419193 L83.340599,19.7419193 L78.4424748,5.94085534 L73.5443505,19.7419193 L73.5460837,19.7419193 Z" id="Combined-Shape"></path>
                <path d="M217.042256,19.1254934 C217.015164,19.145024 216.987675,19.1641987 216.959791,19.1830068 L203.345858,28.3657203 C201.897279,29.3427988 199.930896,28.9605726 198.953817,27.511994 C197.976739,26.0634155 198.358965,24.0970319 199.807544,23.1199533 L213.421476,13.9372399 C213.439403,13.9251479 213.45741,13.9132641 213.475492,13.901588 L214.506335,13.1682583 C214.844932,12.9273839 215.250149,12.7979552 215.665683,12.7979552 L226.71026,12.7979552 C228.414236,12.7979552 229.795581,14.1640596 229.795581,15.8492349 L229.795581,16.0742138 C229.795581,17.759389 228.414236,19.1254934 226.71026,19.1254934 L217.042256,19.1254934 Z M209.298038,7.48844404 C210.746616,8.4655226 211.128842,10.4319062 210.151764,11.8804847 C209.174685,13.3290633 207.208302,13.7112895 205.759723,12.734211 L199.807544,8.71941511 C198.358965,7.74233655 197.976739,5.77595295 198.953817,4.32737441 C199.930896,2.87879587 201.897279,2.49656962 203.345858,3.47364818 L209.298038,7.48844404 Z" id="Combined-Shape" transform="translate(214.104096, 15.919684) rotate(-270.000000) translate(-214.104096, -15.919684) "></path>
                <path d="M48.2895084,31.5322322 C39.2788081,31.5322322 32.1164566,25.134388 32.1164566,15.7661161 C32.1164566,6.39784421 39.2788081,0 48.2895084,0 C53.3724675,0 56.8381215,1.87365438 59.2871836,4.52418983 C59.7954795,5.02687759 60.0727318,5.80375868 60.0727318,6.58063976 C60.0727318,8.27149858 58.6864703,9.6424652 56.9767476,9.6424652 C56.0525733,9.6424652 55.2208163,9.2768741 54.6201029,8.59139079 C53.0952152,6.90053197 50.8771967,5.75805979 48.2895084,5.75805979 C42.9292969,5.75805979 38.8629296,10.0080563 38.8629296,15.7661161 C38.8629296,21.5241759 42.9292969,25.7741724 48.2895084,25.7741724 C50.8771967,25.7741724 53.0952152,24.6773991 54.6663117,22.8951425 C55.2208163,22.301057 56.0525733,21.889767 56.9767476,21.889767 C58.6864703,21.889767 60.0727318,23.2607336 60.0727318,24.9515924 C60.0727318,25.7284735 59.7954795,26.4596557 59.2871836,26.9623435 C56.8381215,29.6128789 53.3724675,31.5322322 48.2895084,31.5322322 Z" id="Path"></path>
                <path d="M102.122667,30.9838455 C99.9046481,30.9838455 98.6570126,29.7499756 98.6570126,27.5107301 L98.6570126,3.9301043 C98.6570126,1.73655771 99.9046481,0.502687759 102.122667,0.502687759 L110.809906,0.502687759 C120.467528,0.502687759 127.167793,6.58063976 127.167793,15.7661161 C127.167793,24.9515924 120.467528,30.9838455 110.809906,30.9838455 L102.122667,30.9838455 Z M105.218651,25.2714846 L110.809906,25.2714846 C116.909457,25.2714846 120.467528,20.9300903 120.467528,15.7661161 C120.467528,10.3736474 117.1405,6.21504866 110.809906,6.21504866 L105.218651,6.21504866 L105.218651,25.2714846 Z" id="Combined-Shape"></path>
                <path d="M136.686789,30.9838455 C134.46877,30.9838455 133.221135,29.7499756 133.221135,27.5107301 L133.221135,3.9301043 C133.221135,1.73655771 134.46877,0.502687759 136.686789,0.502687759 L152.490171,0.502687759 C154.061267,0.502687759 155.355111,1.73655771 155.355111,3.33601877 C155.355111,4.84408204 154.061267,6.077952 152.490171,6.077952 L139.782773,6.077952 L139.782773,12.7042906 L152.16671,12.7042906 C153.737806,12.7042906 155.03165,13.9838595 155.03165,15.4919228 C155.03165,17.0456849 153.737806,18.2795549 152.16671,18.2795549 L139.782773,18.2795549 L139.782773,25.3628824 L152.490171,25.3628824 C154.061267,25.3628824 155.355111,26.6424512 155.355111,28.1505145 C155.355111,29.7042767 154.061267,30.9838455 152.490171,30.9838455 L136.686789,30.9838455 Z" id="Path"></path>
                <path d="M191.628956,31.3037377 C189.826816,31.3037377 188.348137,29.7956745 188.348137,28.0591167 L188.348137,9.04837967 L179.984359,30.1155667 C179.707107,30.80105 179.013976,31.3037377 178.228428,31.3037377 C177.442879,31.3037377 176.749749,30.80105 176.472496,30.1155667 L168.108718,9.04837967 L168.108718,28.0591167 C168.108718,29.7956745 166.676248,31.3037377 164.874108,31.3037377 C163.025759,31.3037377 161.54708,29.7956745 161.54708,28.0591167 L161.54708,5.48386646 C161.54708,2.55913768 163.949933,0.182795549 166.907291,0.182795549 C169.217727,0.182795549 171.158494,1.59946105 171.944042,3.61021209 L178.228428,19.5134248 L184.559022,3.61021209 C185.298362,1.59946105 187.285337,0.182795549 189.549564,0.182795549 C192.553131,0.182795549 194.955984,2.55913768 194.955984,5.48386646 L194.955984,28.0591167 C194.955984,29.7956745 193.477305,31.3037377 191.628956,31.3037377 Z" id="Path"></path>
            </g>
            <g id="Futures" transform="translate(10.000000, 0.000000)">
                <path d="M3.3270278,31.3037377 C1.47867902,31.3037377 0,29.7956745 0,28.0591167 L0,3.9301043 C0,1.73655771 1.24763542,0.502687759 3.46565396,0.502687759 L19.269036,0.502687759 C20.8401325,0.502687759 22.1339766,1.73655771 22.1339766,3.33601877 C22.1339766,4.84408204 20.8401325,6.077952 19.269036,6.077952 L6.56163816,6.077952 L6.56163816,12.7042906 L18.945575,12.7042906 C20.5166714,12.7042906 21.8105156,13.9838595 21.8105156,15.4919228 C21.8105156,17.0456849 20.5166714,18.2795549 18.945575,18.2795549 L6.56163816,18.2795549 L6.56163816,28.0591167 C6.56163816,29.7956745 5.12916786,31.3037377 3.3270278,31.3037377 Z M27.7714404,18.8279415 L27.7714404,3.47311543 C27.7714404,1.64515994 29.2501194,0.182795549 31.0984682,0.182795549 C32.946817,0.182795549 34.425496,1.64515994 34.425496,3.47311543 L34.425496,18.5994471 C34.425496,22.8494436 36.7821407,25.7741724 41.5878475,25.7741724 C46.3011369,25.7741724 48.6577816,22.8494436 48.6577816,18.5994471 L48.6577816,3.47311543 C48.6577816,1.64515994 50.1364606,0.182795549 51.9848094,0.182795549 C53.8331582,0.182795549 55.3118372,1.64515994 55.3118372,3.47311543 L55.3118372,18.7822426 C55.3118372,26.3682579 50.9220089,31.5322322 41.5878475,31.5322322 C32.1612688,31.5322322 27.7714404,26.322559 27.7714404,18.8279415 Z M73.2408204,31.3037377 C71.3924716,31.3037377 69.9137926,29.7956745 69.9137926,28.0591167 L69.9137926,6.21504866 L63.4907806,6.21504866 C61.9196841,6.21504866 60.5796312,4.93547982 60.5796312,3.38171765 C60.5796312,1.7822566 61.9196841,0.502687759 63.4907806,0.502687759 L82.9446515,0.502687759 C84.5157479,0.502687759 85.8558008,1.7822566 85.8558008,3.38171765 C85.8558008,4.93547982 84.5157479,6.21504866 82.9446515,6.21504866 L76.5216395,6.21504866 L76.5216395,28.0591167 C76.5216395,29.7956745 75.0429604,31.3037377 73.2408204,31.3037377 Z M91.0773861,18.8279415 L91.0773861,3.47311543 C91.0773861,1.64515994 92.5560651,0.182795549 94.4044139,0.182795549 C96.2527627,0.182795549 97.7314417,1.64515994 97.7314417,3.47311543 L97.7314417,18.5994471 C97.7314417,22.8494436 100.088086,25.7741724 104.893793,25.7741724 C109.607083,25.7741724 111.963727,22.8494436 111.963727,18.5994471 L111.963727,3.47311543 C111.963727,1.64515994 113.442406,0.182795549 115.290755,0.182795549 C117.139104,0.182795549 118.617783,1.64515994 118.617783,3.47311543 L118.617783,18.7822426 C118.617783,26.3682579 114.227955,31.5322322 104.893793,31.5322322 C95.4672145,31.5322322 91.0773861,26.322559 91.0773861,18.8279415 Z M160.667718,30.9838455 C158.449699,30.9838455 157.202064,29.7499756 157.202064,27.5107301 L157.202064,3.9301043 C157.202064,1.73655771 158.449699,0.502687759 160.667718,0.502687759 L176.4711,0.502687759 C178.042196,0.502687759 179.33604,1.73655771 179.33604,3.33601877 C179.33604,4.84408204 178.042196,6.077952 176.4711,6.077952 L163.763702,6.077952 L163.763702,12.7042906 L176.147639,12.7042906 C177.718735,12.7042906 179.012579,13.9838595 179.012579,15.4919228 C179.012579,17.0456849 177.718735,18.2795549 176.147639,18.2795549 L163.763702,18.2795549 L163.763702,25.3628824 L176.4711,25.3628824 C178.042196,25.3628824 179.33604,26.6424512 179.33604,28.1505145 C179.33604,29.7042767 178.042196,30.9838455 176.4711,30.9838455 L160.667718,30.9838455 Z M185.620426,28.4704067 C184.788669,27.9220201 184.234165,27.0080423 184.234165,25.9569679 C184.234165,24.2661091 185.620426,22.8951425 187.28394,22.8951425 C187.930862,22.8951425 188.531576,23.077938 189.039871,23.4435291 C191.165473,24.9058935 193.706952,25.8655702 196.802936,25.8655702 C200.407216,25.8655702 202.163148,24.1747113 202.163148,22.4381536 C202.163148,20.1532093 199.483042,19.3763282 195.924971,18.5537482 C190.88822,17.411276 184.418999,16.0403094 184.418999,9.23117522 C184.418999,4.15859874 188.855037,0.0456988872 196.571893,0.0456988872 C200.083755,0.0456988872 203.17974,0.868278857 206.137098,2.55913768 C207.015063,3.01612656 207.661985,4.02150207 207.661985,5.11827537 C207.661985,6.76343531 206.275724,8.13440192 204.658419,8.13440192 C204.057705,8.13440192 203.503201,7.95160637 203.087322,7.67741305 C200.684469,6.35214532 198.281615,5.7123609 196.109805,5.7123609 C192.69036,5.7123609 191.119264,6.99192974 191.119264,8.81988523 C191.119264,10.8763352 193.706952,11.5161196 197.265023,12.3386995 C202.347983,13.4811717 208.817203,14.989235 208.817203,21.7526703 C208.817203,27.3279345 204.797045,31.5322322 196.479475,31.5322322 C191.951021,31.5322322 188.392949,30.38976 185.620426,28.4704067 Z" id="Futures-Academy"></path>
                <path d="M132.669922,14.4865472 L132.669922,20.0618115 L132.665234,20.0618115 L132.665234,28.0591167 C132.665234,29.7956745 131.232763,31.3037377 129.430623,31.3037377 C127.582275,31.3037377 126.103595,29.7956745 126.103595,28.0591167 L126.103595,3.9301043 C126.103595,1.73655771 127.351231,0.502687759 129.569249,0.502687759 L140.520716,0.502687759 C146.943728,0.502687759 150.871469,4.66128649 150.871469,10.3279485 C150.871469,15.2177294 148.052737,18.0510604 145.002962,19.1478337 L150.224547,26.1854624 C150.640425,26.733849 150.871469,27.3279345 150.871469,28.2419123 C150.871469,29.7956745 149.485208,31.3037377 147.729276,31.3037377 C146.574058,31.3037377 145.557466,30.7096522 145.002962,29.9327711 L138.071654,20.0618115 L137.323599,20.0618115 C135.933053,19.9026911 135.021442,18.7179174 135.021442,17.2799804 C135.021442,15.7985512 135.989033,14.5858313 137.451079,14.4865472 L139.550333,14.4865472 C142.18423,14.4865472 144.171205,12.8413873 144.171205,10.2822496 C144.171205,7.72311194 142.18423,6.077952 139.550333,6.077952 L132.665234,6.077952 L132.665234,14.4865472 L132.669922,14.4865472 Z" id="Combined-Shape"></path>
            </g>
        </g>
    </g>
</svg>