<?xml version="1.0" encoding="UTF-8"?>
<svg width="451px" height="32px" viewBox="0 0 451 32" version="1.1" xmlns="http://www.w3.org/2000/svg" xmlns:xlink="http://www.w3.org/1999/xlink">
    <!-- Generator: Sketch 48.2 (47327) - http://www.bohemiancoding.com/sketch -->
    <title>fa_logo_line_white</title>
    <desc>Created with Sketch.</desc>
    <defs></defs>
    <g id="Website" stroke="none" stroke-width="1" fill="none" fill-rule="evenodd">
        <g id="fa_logo_line_white" fill="#FFFFFF">
            <g id="Academy" transform="translate(224.000000, 0.000000)">
                <path d="M9.65313526,19.6651982 L7.63736476,25.2643257 L14.7779665,25.2643257 C14.7756227,25.2643257 14.7732796,25.2643229 14.7709372,25.2643172 L7.63880126,25.2643172 L6.40378549,28.814978 C5.99211356,30.0895742 4.71135647,31 3.29337539,31 C1.4637224,31 0,29.5433186 0,27.722467 C0,27.3127753 0.0914826498,26.9030837 0.228706625,26.5844347 L9.14826498,3.64170338 C9.97160883,1.50220264 12.0299685,0 14.5,0 C16.9242902,0 19.0283912,1.50220264 19.851735,3.64170338 L28.7255521,26.5844347 C28.862776,26.9030837 29,27.3127753 29,27.722467 C29,29.5433186 27.4905363,31 25.6608833,31 C24.2429022,31 23.0078864,30.0895742 22.5962145,28.814978 L21.3611987,25.2643172 L14.7709372,25.2643172 C13.2195702,25.2605433 11.9631157,24.0078039 11.9631157,22.4630154 C11.9631157,20.9632195 13.1474467,19.7387082 14.6361592,19.6651982 L19.3485804,19.6651982 L14.5,5.91776799 L9.65141956,19.6651982 L9.65313526,19.6651982 Z" id="Combined-Shape"></path>
                <path d="M73.6531353,19.6651982 L71.6373648,25.2643257 L78.7779665,25.2643257 C78.7756227,25.2643257 78.7732796,25.2643229 78.7709372,25.2643172 L71.6388013,25.2643172 L70.4037855,28.814978 C69.9921136,30.0895742 68.7113565,31 67.2933754,31 C65.4637224,31 64,29.5433186 64,27.722467 C64,27.3127753 64.0914826,26.9030837 64.2287066,26.5844347 L73.148265,3.64170338 C73.9716088,1.50220264 76.0299685,0 78.5,0 C80.9242902,0 83.0283912,1.50220264 83.851735,3.64170338 L92.7255521,26.5844347 C92.862776,26.9030837 93,27.3127753 93,27.722467 C93,29.5433186 91.4905363,31 89.6608833,31 C88.2429022,31 87.0078864,30.0895742 86.5962145,28.814978 L85.3611987,25.2643172 L78.7709372,25.2643172 C77.2195702,25.2605433 75.9631157,24.0078039 75.9631157,22.4630154 C75.9631157,20.9632195 77.1474467,19.7387082 78.6361592,19.6651982 L83.3485804,19.6651982 L78.5,5.91776799 L73.6514196,19.6651982 L73.6531353,19.6651982 Z" id="Combined-Shape"></path>
                <path d="M216.523903,19.2224257 C216.461621,19.2715772 216.397041,19.3187718 216.330193,19.3638617 L202.95156,28.3878633 C201.501559,29.3659017 199.533244,28.9832999 198.555205,27.5332984 C197.577167,26.0832969 197.959768,24.1149817 199.40977,23.1369433 L211.940087,14.6851381 L213.908299,13.2662839 C214.248856,13.0207819 214.658032,12.8886717 215.077854,12.8886717 L225.972933,12.8886717 C227.656115,12.8886717 229.020603,14.2561181 229.020603,15.9429487 L229.020603,16.1681487 C229.020603,17.8549793 227.656115,19.2224257 225.972933,19.2224257 L216.523903,19.2224257 Z M208.761937,7.52414932 C210.211939,8.5021877 210.59454,10.4705029 209.616502,11.9205045 C208.638464,13.370506 206.670148,13.7531077 205.220147,12.7750693 L199.40977,8.85592068 C197.959768,7.8778823 197.577167,5.90956706 198.555205,4.45956554 C199.533244,3.00956402 201.501559,2.6269623 202.95156,3.60500067 L208.761937,7.52414932 Z" id="Combined-Shape" transform="translate(213.517035, 15.996432) rotate(-270.000000) translate(-213.517035, -15.996432) "></path>
                <path d="M48.1983471,32 C39.1735537,32 32,25.5072464 32,16 C32,6.49275362 39.1735537,0 48.1983471,0 C53.2892562,0 56.7603306,1.90144928 59.2132231,4.59130435 C59.722314,5.10144928 60,5.88985507 60,6.67826087 C60,8.3942029 58.6115702,9.78550725 56.8991736,9.78550725 C55.9735537,9.78550725 55.1404959,9.41449275 54.538843,8.71884058 C53.0115702,7.00289855 50.7900826,5.84347826 48.1983471,5.84347826 C42.8297521,5.84347826 38.7570248,10.1565217 38.7570248,16 C38.7570248,21.8434783 42.8297521,26.1565217 48.1983471,26.1565217 C50.7900826,26.1565217 53.0115702,25.0434783 54.585124,23.2347826 C55.1404959,22.6318841 55.9735537,22.2144928 56.8991736,22.2144928 C58.6115702,22.2144928 60,23.6057971 60,25.3217391 C60,26.1101449 59.722314,26.8521739 59.2132231,27.3623188 C56.7603306,30.0521739 53.2892562,32 48.1983471,32 Z" id="Path"></path>
                <path d="M102.525122,31 C100.269044,31 99,29.7856072 99,27.5817091 L99,4.37331334 C99,2.2143928 100.269044,1 102.525122,1 L111.361426,1 C121.184765,1 128,6.982009 128,16.0224888 C128,25.0629685 121.184765,31 111.361426,31 L102.525122,31 Z M105.67423,25.3778111 L111.361426,25.3778111 C117.56564,25.3778111 121.184765,21.1049475 121.184765,16.0224888 C121.184765,10.7151424 117.800648,6.62218891 111.361426,6.62218891 L105.67423,6.62218891 L105.67423,25.3778111 Z" id="Combined-Shape"></path>
                <path d="M136.444676,31 C134.240084,31 133,29.7856072 133,27.5817091 L133,4.37331334 C133,2.2143928 134.240084,1 136.444676,1 L152.152401,1 C153.713987,1 155,2.2143928 155,3.7886057 C155,5.27286357 153.713987,6.48725637 152.152401,6.48725637 L139.521921,6.48725637 L139.521921,13.0089955 L151.830898,13.0089955 C153.392484,13.0089955 154.678497,14.2683658 154.678497,15.7526237 C154.678497,17.2818591 153.392484,18.4962519 151.830898,18.4962519 L139.521921,18.4962519 L139.521921,25.4677661 L152.152401,25.4677661 C153.713987,25.4677661 155,26.7271364 155,28.2113943 C155,29.7406297 153.713987,31 152.152401,31 L136.444676,31 Z" id="Path"></path>
                <path d="M191.713693,31 C189.93361,31 188.473029,29.4977974 188.473029,27.7679883 L188.473029,8.83113069 L180.211618,29.8164464 C179.937759,30.4992658 179.253112,31 178.477178,31 C177.701245,31 177.016598,30.4992658 176.742739,29.8164464 L168.481328,8.83113069 L168.481328,27.7679883 C168.481328,29.4977974 167.06639,31 165.286307,31 C163.460581,31 162,29.4977974 162,27.7679883 L162,5.2804699 C162,2.3671072 164.373444,0 167.294606,0 C169.576763,0 171.493776,1.41116006 172.26971,3.41409692 L178.477178,19.2555066 L184.73029,3.41409692 C185.460581,1.41116006 187.423237,0 189.659751,0 C192.626556,0 195,2.3671072 195,5.2804699 L195,27.7679883 C195,29.4977974 193.539419,31 191.713693,31 Z" id="Path"></path>
            </g>
            <g id="Futures">
                <path d="M3.3270278,31.3037377 C1.47867902,31.3037377 0,29.7956745 0,28.0591167 L0,3.9301043 C0,1.73655771 1.24763542,0.502687759 3.46565396,0.502687759 L19.269036,0.502687759 C20.8401325,0.502687759 22.1339766,1.73655771 22.1339766,3.33601877 C22.1339766,4.84408204 20.8401325,6.077952 19.269036,6.077952 L6.56163816,6.077952 L6.56163816,12.7042906 L18.945575,12.7042906 C20.5166714,12.7042906 21.8105156,13.9838595 21.8105156,15.4919228 C21.8105156,17.0456849 20.5166714,18.2795549 18.945575,18.2795549 L6.56163816,18.2795549 L6.56163816,28.0591167 C6.56163816,29.7956745 5.12916786,31.3037377 3.3270278,31.3037377 Z M27.7714404,18.8279415 L27.7714404,3.47311543 C27.7714404,1.64515994 29.2501194,0.182795549 31.0984682,0.182795549 C32.946817,0.182795549 34.425496,1.64515994 34.425496,3.47311543 L34.425496,18.5994471 C34.425496,22.8494436 36.7821407,25.7741724 41.5878475,25.7741724 C46.3011369,25.7741724 48.6577816,22.8494436 48.6577816,18.5994471 L48.6577816,3.47311543 C48.6577816,1.64515994 50.1364606,0.182795549 51.9848094,0.182795549 C53.8331582,0.182795549 55.3118372,1.64515994 55.3118372,3.47311543 L55.3118372,18.7822426 C55.3118372,26.3682579 50.9220089,31.5322322 41.5878475,31.5322322 C32.1612688,31.5322322 27.7714404,26.322559 27.7714404,18.8279415 Z M73.2408204,31.3037377 C71.3924716,31.3037377 69.9137926,29.7956745 69.9137926,28.0591167 L69.9137926,6.21504866 L63.4907806,6.21504866 C61.9196841,6.21504866 60.5796312,4.93547982 60.5796312,3.38171765 C60.5796312,1.7822566 61.9196841,0.502687759 63.4907806,0.502687759 L82.9446515,0.502687759 C84.5157479,0.502687759 85.8558008,1.7822566 85.8558008,3.38171765 C85.8558008,4.93547982 84.5157479,6.21504866 82.9446515,6.21504866 L76.5216395,6.21504866 L76.5216395,28.0591167 C76.5216395,29.7956745 75.0429604,31.3037377 73.2408204,31.3037377 Z M91.0773861,18.8279415 L91.0773861,3.47311543 C91.0773861,1.64515994 92.5560651,0.182795549 94.4044139,0.182795549 C96.2527627,0.182795549 97.7314417,1.64515994 97.7314417,3.47311543 L97.7314417,18.5994471 C97.7314417,22.8494436 100.088086,25.7741724 104.893793,25.7741724 C109.607083,25.7741724 111.963727,22.8494436 111.963727,18.5994471 L111.963727,3.47311543 C111.963727,1.64515994 113.442406,0.182795549 115.290755,0.182795549 C117.139104,0.182795549 118.617783,1.64515994 118.617783,3.47311543 L118.617783,18.7822426 C118.617783,26.3682579 114.227955,31.5322322 104.893793,31.5322322 C95.4672145,31.5322322 91.0773861,26.322559 91.0773861,18.8279415 Z M160.667718,30.9838455 C158.449699,30.9838455 157.202064,29.7499756 157.202064,27.5107301 L157.202064,3.9301043 C157.202064,1.73655771 158.449699,0.502687759 160.667718,0.502687759 L176.4711,0.502687759 C178.042196,0.502687759 179.33604,1.73655771 179.33604,3.33601877 C179.33604,4.84408204 178.042196,6.077952 176.4711,6.077952 L163.763702,6.077952 L163.763702,12.7042906 L176.147639,12.7042906 C177.718735,12.7042906 179.012579,13.9838595 179.012579,15.4919228 C179.012579,17.0456849 177.718735,18.2795549 176.147639,18.2795549 L163.763702,18.2795549 L163.763702,25.3628824 L176.4711,25.3628824 C178.042196,25.3628824 179.33604,26.6424512 179.33604,28.1505145 C179.33604,29.7042767 178.042196,30.9838455 176.4711,30.9838455 L160.667718,30.9838455 Z M185.620426,28.4704067 C184.788669,27.9220201 184.234165,27.0080423 184.234165,25.9569679 C184.234165,24.2661091 185.620426,22.8951425 187.28394,22.8951425 C187.930862,22.8951425 188.531576,23.077938 189.039871,23.4435291 C191.165473,24.9058935 193.706952,25.8655702 196.802936,25.8655702 C200.407216,25.8655702 202.163148,24.1747113 202.163148,22.4381536 C202.163148,20.1532093 199.483042,19.3763282 195.924971,18.5537482 C190.88822,17.411276 184.418999,16.0403094 184.418999,9.23117522 C184.418999,4.15859874 188.855037,0.0456988872 196.571893,0.0456988872 C200.083755,0.0456988872 203.17974,0.868278857 206.137098,2.55913768 C207.015063,3.01612656 207.661985,4.02150207 207.661985,5.11827537 C207.661985,6.76343531 206.275724,8.13440192 204.658419,8.13440192 C204.057705,8.13440192 203.503201,7.95160637 203.087322,7.67741305 C200.684469,6.35214532 198.281615,5.7123609 196.109805,5.7123609 C192.69036,5.7123609 191.119264,6.99192974 191.119264,8.81988523 C191.119264,10.8763352 193.706952,11.5161196 197.265023,12.3386995 C202.347983,13.4811717 208.817203,14.989235 208.817203,21.7526703 C208.817203,27.3279345 204.797045,31.5322322 196.479475,31.5322322 C191.951021,31.5322322 188.392949,30.38976 185.620426,28.4704067 Z" id="Futures-Academy"></path>
                <path d="M132.669922,14.4865472 L132.669922,20.0618115 L132.665234,20.0618115 L132.665234,28.0591167 C132.665234,29.7956745 131.232763,31.3037377 129.430623,31.3037377 C127.582275,31.3037377 126.103595,29.7956745 126.103595,28.0591167 L126.103595,3.9301043 C126.103595,1.73655771 127.351231,0.502687759 129.569249,0.502687759 L140.520716,0.502687759 C146.943728,0.502687759 150.871469,4.66128649 150.871469,10.3279485 C150.871469,15.2177294 148.052737,18.0510604 145.002962,19.1478337 L150.224547,26.1854624 C150.640425,26.733849 150.871469,27.3279345 150.871469,28.2419123 C150.871469,29.7956745 149.485208,31.3037377 147.729276,31.3037377 C146.574058,31.3037377 145.557466,30.7096522 145.002962,29.9327711 L138.071654,20.0618115 L137.323599,20.0618115 C135.933053,19.9026911 135.021442,18.7179174 135.021442,17.2799804 C135.021442,15.7985512 135.989033,14.5858313 137.451079,14.4865472 L139.550333,14.4865472 C142.18423,14.4865472 144.171205,12.8413873 144.171205,10.2822496 C144.171205,7.72311194 142.18423,6.077952 139.550333,6.077952 L132.665234,6.077952 L132.665234,14.4865472 L132.669922,14.4865472 Z" id="Combined-Shape"></path>
            </g>
        </g>
    </g>
</svg>