<?xml version="1.0" standalone="no"?>
<!DOCTYPE svg PUBLIC "-//W3C//DTD SVG 20010904//EN"
 "http://www.w3.org/TR/2001/REC-SVG-20010904/DTD/svg10.dtd">
<svg version="1.0" xmlns="http://www.w3.org/2000/svg"
 width="400.000000pt" height="400.000000pt" viewBox="0 0 400.000000 400.000000"
 preserveAspectRatio="xMidYMid meet">
<metadata>
Created by potrace 1.11, written by Peter Selinger 2001-2013
</metadata>
<g transform="translate(0.000000,400.000000) scale(0.100000,-0.100000)"
fill="#000000" stroke="none">
<path d="M546 2890 c-69 -21 -114 -102 -101 -180 8 -49 65 -107 114 -116 20
-4 338 -7 707 -8 655 0 671 0 710 20 116 60 108 228 -13 280 -27 12 -155 14
-710 13 -373 0 -691 -5 -707 -9z"/>
<path d="M2561 2887 c-19 -7 -48 -29 -65 -50 -59 -73 -34 -187 51 -232 31 -17
69 -19 446 -19 227 -1 431 2 455 6 54 10 87 33 111 82 39 77 3 179 -75 212
-45 19 -870 20 -923 1z"/>
<path d="M546 2170 c-56 -17 -106 -85 -106 -144 0 -49 30 -103 73 -132 l42
-28 960 0 c528 -1 975 2 994 6 73 14 124 79 123 155 -2 60 -28 101 -81 130
l-44 23 -966 -1 c-531 0 -979 -5 -995 -9z"/>
<path d="M3116 2158 c-66 -38 -96 -120 -69 -188 34 -86 72 -102 242 -103 168
-1 199 5 239 44 74 72 65 179 -22 243 -25 19 -44 21 -189 24 -153 2 -164 1
-201 -20z"/>
<path d="M535 1446 c-42 -18 -83 -69 -91 -112 -15 -79 42 -166 116 -181 19 -4
197 -7 395 -6 305 0 365 2 390 15 117 61 117 226 1 279 -38 17 -71 19 -411 18
-285 0 -377 -3 -400 -13z"/>
<path d="M1915 1436 c-108 -65 -103 -215 10 -274 26 -13 121 -15 765 -16 404
-1 751 3 771 7 71 17 118 82 114 160 -3 52 -22 87 -69 121 -27 21 -37 21 -789
24 l-762 2 -40 -24z"/>
</g>
</svg>
