<?xml version="1.0" encoding="UTF-8"?>
<svg width="49px" height="190px" viewBox="0 0 49 190" version="1.1" xmlns="http://www.w3.org/2000/svg" xmlns:xlink="http://www.w3.org/1999/xlink">
    <!-- Generator: Sketch 48.2 (47327) - http://www.bohemiancoding.com/sketch -->
    <title>Group 12</title>
    <desc>Created with Sketch.</desc>
    <defs></defs>
    <g id="web5" stroke="none" stroke-width="1" fill="none" fill-rule="evenodd" transform="translate(-698.000000, -2139.000000)">
        <g id="Group-12" transform="translate(722.500000, 2234.000000) scale(-1, -1) rotate(-90.000000) translate(-722.500000, -2234.000000) translate(627.500000, 2209.500000)">
            <rect id="Rectangle" fill="#FF9507" x="19" y="40" width="70" height="9" rx="4.5"></rect>
            <rect id="Rectangle" fill="#182D32" x="144" y="0" width="45.9413747" height="9" rx="4.5"></rect>
            <rect id="Rectangle" fill="#E72D2D" transform="translate(39.500000, 24.500000) scale(-1, 1) translate(-39.500000, -24.500000) " x="0" y="20" width="79" height="9" rx="4.5"></rect>
            <rect id="Rectangle" fill="#FF9507" x="30" y="0" width="9" height="9" rx="4.5"></rect>
            <rect id="Rectangle" fill="#0696B9" x="50" y="0" width="83" height="9" rx="4.5"></rect>
            <rect id="Rectangle" fill="#0696B9" transform="translate(112.970687, 24.500000) scale(-1, 1) translate(-112.970687, -24.500000) " x="90" y="20" width="45.9413747" height="9" rx="4.5"></rect>
            <rect id="Rectangle" fill="#142C31" x="131" y="40" width="28.2045148" height="9" rx="4.5"></rect>
            <rect id="Rectangle" fill="#E72D2D" transform="translate(151.500000, 24.500000) scale(-1, 1) translate(-151.500000, -24.500000) " x="147" y="20" width="9" height="9" rx="4.5"></rect>
            <rect id="Rectangle" fill="#E72D2D" x="100" y="40" width="20" height="9" rx="4.5"></rect>
        </g>
    </g>
</svg>