<?xml version="1.0" encoding="UTF-8"?>
<svg width="49px" height="165px" viewBox="0 0 49 165" version="1.1" xmlns="http://www.w3.org/2000/svg" xmlns:xlink="http://www.w3.org/1999/xlink">
    <!-- Generator: Sketch 48.2 (47327) - http://www.bohemiancoding.com/sketch -->
    <title>Group 13</title>
    <desc>Created with Sketch.</desc>
    <defs></defs>
    <g id="web5" stroke="none" stroke-width="1" fill="none" fill-rule="evenodd" transform="translate(-696.000000, -1547.000000)">
        <g id="Group-13" transform="translate(720.500000, 1629.500000) rotate(-90.000000) translate(-720.500000, -1629.500000) translate(638.000000, 1605.000000)">
            <rect id="Rectangle" fill="#FF9507" x="156" y="0" width="9" height="9" rx="4.5"></rect>
            <rect id="Rectangle" fill="#FF9507" transform="translate(49.500000, 24.500000) scale(-1, 1) translate(-49.500000, -24.500000) " x="29" y="20" width="41" height="9" rx="4.5"></rect>
            <rect id="Rectangle" fill="#0696B9" x="120" y="0" width="25" height="9" rx="4.5"></rect>
            <rect id="Rectangle" fill="#0696B9" transform="translate(122.275606, 24.500000) scale(-1, 1) translate(-122.275606, -24.500000) " x="101.775606" y="20" width="41" height="9" rx="4.5"></rect>
            <rect id="Rectangle" fill="#142C31" x="26" y="0" width="83" height="9" rx="4.5"></rect>
            <rect id="Rectangle" fill="#142C31" transform="translate(85.500000, 24.500000) scale(-1, 1) translate(-85.500000, -24.500000) " x="81" y="20" width="9" height="9" rx="4.5"></rect>
            <rect id="Rectangle" fill="#142C31" x="102" y="40" width="62" height="9" rx="4.5"></rect>
            <rect id="Rectangle" fill="#E72D2D" x="0" y="40" width="91" height="9" rx="4.5"></rect>
        </g>
    </g>
</svg>