<?xml version="1.0" encoding="UTF-8"?>
<svg width="2161px" height="49px" viewBox="0 0 2161 49" version="1.1" xmlns="http://www.w3.org/2000/svg" xmlns:xlink="http://www.w3.org/1999/xlink">
    <!-- Generator: Sketch 48.2 (47327) - http://www.bohemiancoding.com/sketch -->
    <title>footer_pattern</title>
    <desc>Created with Sketch.</desc>
    <defs></defs>
    <g id="Website" stroke="none" stroke-width="1" fill="none" fill-rule="evenodd" opacity="0.747678895">
        <g id="footer_pattern">
            <rect id="Rectangle" fill="#FF9507" x="1389" y="0" width="9" height="9" rx="4.5"></rect>
            <rect id="Rectangle" fill="#FF9507" transform="translate(2002.500000, 4.500000) scale(-1, 1) translate(-2002.500000, -4.500000) " x="1998" y="0" width="9" height="9" rx="4.5"></rect>
            <rect id="Rectangle" fill="#FF9507" x="276" y="0" width="41" height="9" rx="4.5"></rect>
            <rect id="Rectangle" fill="#FF9507" x="836" y="0" width="93" height="9" rx="4.5"></rect>
            <rect id="Rectangle" fill="#FF9507" x="1172" y="0" width="76" height="9" rx="4.5"></rect>
            <rect id="Rectangle" fill="#E72D2D" transform="translate(1819.000000, 4.500000) scale(-1, 1) translate(-1819.000000, -4.500000) " x="1781" y="0" width="76" height="9" rx="4.5"></rect>
            <rect id="Rectangle" fill="#FF9507" x="513" y="0" width="9" height="9" rx="4.5"></rect>
            <rect id="Rectangle" fill="#545861" transform="translate(118.500000, 44.500000) scale(-1, 1) translate(-118.500000, -44.500000) " x="114" y="40" width="9" height="9" rx="4.5"></rect>
            <rect id="Rectangle" fill="#FF9507" transform="translate(1105.000000, 24.500000) scale(-1, 1) translate(-1105.000000, -24.500000) " x="1077" y="20" width="56" height="9" rx="4.5"></rect>
            <rect id="Rectangle" fill="#FF9507" transform="translate(1714.000000, 24.500000) scale(-1, 1) translate(-1714.000000, -24.500000) " x="1686" y="20" width="56" height="9" rx="4.5"></rect>
            <rect id="Rectangle" fill="#0696B9" transform="translate(185.500000, 24.500000) scale(-1, 1) translate(-185.500000, -24.500000) " x="181" y="20" width="9" height="9" rx="4.5"></rect>
            <rect id="Rectangle" fill="#FF9507" transform="translate(1282.500000, 24.500000) scale(-1, 1) translate(-1282.500000, -24.500000) " x="1262" y="20" width="41" height="9" rx="4.5"></rect>
            <rect id="Rectangle" fill="#FF9507" transform="translate(1891.500000, 24.500000) scale(-1, 1) translate(-1891.500000, -24.500000) " x="1871" y="20" width="41" height="9" rx="4.5"></rect>
            <rect id="Rectangle" fill="#FF9507" transform="translate(1503.000000, 24.500000) scale(-1, 1) translate(-1503.000000, -24.500000) " x="1475" y="20" width="56" height="9" rx="4.5"></rect>
            <rect id="Rectangle" fill="#FF9507" transform="translate(2115.500000, 24.500000) scale(-1, 1) translate(-2115.500000, -24.500000) " x="2084" y="20" width="63" height="9" rx="4.5"></rect>
            <rect id="Rectangle" fill="#FF9507" transform="translate(696.500000, 24.500000) scale(-1, 1) translate(-696.500000, -24.500000) " x="650" y="20" width="93" height="9" rx="4.5"></rect>
            <rect id="Rectangle" fill="#0696B9" transform="translate(369.000000, 24.500000) scale(-1, 1) translate(-369.000000, -24.500000) " x="331" y="20" width="76" height="9" rx="4.5"></rect>
            <rect id="Rectangle" fill="#FF9507" x="54" y="40" width="49.430593" height="9" rx="4.5"></rect>
            <rect id="Rectangle" fill="#FF9507" x="1172" y="40" width="49.430593" height="9" rx="4.5"></rect>
            <rect id="Rectangle" fill="#FF9507" transform="translate(1805.715296, 44.500000) scale(-1, 1) translate(-1805.715296, -44.500000) " x="1781" y="40" width="49.430593" height="9" rx="4.5"></rect>
            <rect id="Rectangle" fill="#FF9507" x="1437" y="40" width="49.430593" height="9" rx="4.5"></rect>
            <rect id="Rectangle" fill="#FF9507" transform="translate(2070.715296, 44.500000) scale(-1, 1) translate(-2070.715296, -44.500000) " x="2046" y="40" width="49.430593" height="9" rx="4.5"></rect>
            <rect id="Rectangle" fill="#FF9507" x="929" y="40" width="70" height="9" rx="4.5"></rect>
            <rect id="Rectangle" fill="#FF9507" transform="translate(1589.000000, 44.500000) scale(-1, 1) translate(-1589.000000, -44.500000) " x="1570" y="40" width="38" height="9" rx="4.5"></rect>
            <rect id="Rectangle" fill="#E72D2D" x="406" y="40" width="49.430593" height="9" rx="4.5"></rect>
            <rect id="Rectangle" fill="#E72D2D" x="182" y="0" width="62.2243935" height="9" rx="4.5"></rect>
            <rect id="Rectangle" fill="#0696B9" x="1054" y="0" width="62.2243935" height="9" rx="4.5"></rect>
            <rect id="Rectangle" fill="#0696B9" transform="translate(1694.112197, 4.500000) scale(-1, 1) translate(-1694.112197, -4.500000) " x="1663" y="0" width="62.2243935" height="9" rx="4.5"></rect>
            <rect id="Rectangle" fill="#0696B9" x="328" y="0" width="25" height="9" rx="4.5"></rect>
            <rect id="Rectangle" fill="#0696B9" x="1353" y="0" width="25" height="9" rx="4.5"></rect>
            <rect id="Rectangle" fill="#E72D2D" transform="translate(1974.500000, 4.500000) scale(-1, 1) translate(-1974.500000, -4.500000) " x="1962" y="0" width="25" height="9" rx="4.5"></rect>
            <rect id="Rectangle" fill="#0696B9" x="1485" y="0" width="87" height="9" rx="4.5"></rect>
            <rect id="Rectangle" fill="#0696B9" transform="translate(2127.500000, 4.500000) scale(-1, 1) translate(-2127.500000, -4.500000) " x="2094" y="0" width="67" height="9" rx="4.5"></rect>
            <rect id="Rectangle" fill="#0696B9" x="590" y="0" width="56" height="9" rx="4.5"></rect>
            <rect id="Rectangle" fill="#0696B9" x="0.224393531" y="20" width="76" height="9" rx="4.5"></rect>
            <rect id="Rectangle" fill="#0696B9" transform="translate(782.000000, 24.500000) scale(-1, 1) translate(-782.000000, -24.500000) " x="754" y="20" width="56" height="9" rx="4.5"></rect>
            <rect id="Rectangle" fill="#0696B9" transform="translate(1366.112197, 24.500000) scale(-1, 1) translate(-1366.112197, -24.500000) " x="1335" y="20" width="62.2243935" height="9" rx="4.5"></rect>
            <rect id="Rectangle" fill="#FF9507" transform="translate(1975.112197, 24.500000) scale(-1, 1) translate(-1975.112197, -24.500000) " x="1944" y="20" width="62.2243935" height="9" rx="4.5"></rect>
            <rect id="Rectangle" fill="#0696B9" transform="translate(493.887803, 24.500000) scale(-1, 1) translate(-493.887803, -24.500000) " x="462.775606" y="20" width="62.2243935" height="9" rx="4.5"></rect>
            <rect id="Rectangle" fill="#0696B9" transform="translate(1238.500000, 24.500000) scale(-1, 1) translate(-1238.500000, -24.500000) " x="1226" y="20" width="25" height="9" rx="4.5"></rect>
            <rect id="Rectangle" fill="#E72D2D" transform="translate(1847.500000, 24.500000) scale(-1, 1) translate(-1847.500000, -24.500000) " x="1835" y="20" width="25" height="9" rx="4.5"></rect>
            <rect id="Rectangle" fill="#FF9507" transform="translate(213.500000, 24.500000) scale(-1, 1) translate(-213.500000, -24.500000) " x="201" y="20" width="25" height="9" rx="4.5"></rect>
            <rect id="Rectangle" fill="#0696B9" transform="translate(961.000000, 24.500000) scale(-1, 1) translate(-961.000000, -24.500000) " x="933" y="20" width="56" height="9" rx="4.5"></rect>
            <rect id="Rectangle" fill="#0696B9" transform="translate(1570.000000, 24.500000) scale(-1, 1) translate(-1570.000000, -24.500000) " x="1542" y="20" width="56" height="9" rx="4.5"></rect>
            <rect id="Rectangle" fill="#0696B9" x="232" y="40" width="56" height="9" rx="4.5"></rect>
            <rect id="Rectangle" fill="#0696B9" x="652" y="40" width="41" height="9" rx="4.5"></rect>
            <rect id="Rectangle" fill="#0696B9" x="558" y="40" width="9" height="9" rx="4.5"></rect>
            <rect id="Rectangle" fill="#142C31" x="14.0586253" y="0" width="45.9413747" height="9" rx="4.5"></rect>
            <rect id="Rectangle" fill="#142C31" x="533" y="0" width="45.9413747" height="9" rx="4.5"></rect>
            <rect id="Rectangle" fill="#142C31" x="115" y="0" width="56" height="9" rx="4.5"></rect>
            <rect id="Rectangle" fill="#142C31" x="769" y="0" width="56" height="9" rx="4.5"></rect>
            <rect id="Rectangle" fill="#142C31" x="940" y="0" width="9" height="9" rx="4.5"></rect>
            <rect id="Rectangle" fill="#142C31" x="364" y="0" width="71" height="9" rx="4.5"></rect>
            <rect id="Rectangle" fill="#142C31" x="657" y="0" width="65" height="9" rx="4.5"></rect>
            <rect id="Rectangle" fill="#E72D2D" x="960" y="0" width="83" height="9" rx="4.5"></rect>
            <rect id="Rectangle" fill="#142C31" transform="translate(1617.500000, 4.500000) scale(-1, 1) translate(-1617.500000, -4.500000) " x="1583" y="0" width="69" height="9" rx="4.5"></rect>
            <rect id="Rectangle" fill="#142C31" x="1259" y="0" width="83" height="9" rx="4.5"></rect>
            <rect id="Rectangle" fill="#142C31" transform="translate(1909.500000, 4.500000) scale(-1, 1) translate(-1909.500000, -4.500000) " x="1868" y="0" width="83" height="9" rx="4.5"></rect>
            <rect id="Rectangle" fill="#142C31" x="256" y="0" width="9" height="9" rx="4.5"></rect>
            <rect id="Rectangle" fill="#142C31" transform="translate(1022.970687, 24.500000) scale(-1, 1) translate(-1022.970687, -24.500000) " x="1000" y="20" width="45.9413747" height="9" rx="4.5"></rect>
            <rect id="Rectangle" fill="#FF9507" transform="translate(1631.970687, 24.500000) scale(-1, 1) translate(-1631.970687, -24.500000) " x="1609" y="20" width="45.9413747" height="9" rx="4.5"></rect>
            <rect id="Rectangle" fill="#142C31" transform="translate(1436.000000, 24.500000) scale(-1, 1) translate(-1436.000000, -24.500000) " x="1408" y="20" width="56" height="9" rx="4.5"></rect>
            <rect id="Rectangle" fill="#0696B9" transform="translate(2045.000000, 24.500000) scale(-1, 1) translate(-2045.000000, -24.500000) " x="2017" y="20" width="56" height="9" rx="4.5"></rect>
            <rect id="Rectangle" fill="#142C31" transform="translate(1179.500000, 24.500000) scale(-1, 1) translate(-1179.500000, -24.500000) " x="1144" y="20" width="71" height="9" rx="4.5"></rect>
            <rect id="Rectangle" fill="#142C31" transform="translate(1788.500000, 24.500000) scale(-1, 1) translate(-1788.500000, -24.500000) " x="1753" y="20" width="71" height="9" rx="4.5"></rect>
            <rect id="Rectangle" fill="#142C31" transform="translate(889.500000, 24.500000) scale(-1, 1) translate(-889.500000, -24.500000) " x="857" y="20" width="65" height="9" rx="4.5"></rect>
            <rect id="Rectangle" fill="#E72D2D" transform="translate(577.500000, 24.500000) scale(-1, 1) translate(-577.500000, -24.500000) " x="536" y="20" width="83" height="9" rx="4.5"></rect>
            <rect id="Rectangle" fill="#142C31" transform="translate(278.500000, 24.500000) scale(-1, 1) translate(-278.500000, -24.500000) " x="237" y="20" width="83" height="9" rx="4.5"></rect>
            <rect id="Rectangle" fill="#142C31" transform="translate(1318.500000, 24.500000) scale(-1, 1) translate(-1318.500000, -24.500000) " x="1314" y="20" width="9" height="9" rx="4.5"></rect>
            <rect id="Rectangle" fill="#E72D2D" transform="translate(1927.500000, 24.500000) scale(-1, 1) translate(-1927.500000, -24.500000) " x="1923" y="20" width="9" height="9" rx="4.5"></rect>
            <rect id="Rectangle" fill="#142C31" x="87.5643531" y="20" width="15.4107143" height="9" rx="4.5"></rect>
            <rect id="Rectangle" fill="#142C31" x="14" y="40" width="28.2045148" height="9" rx="4.5"></rect>
            <rect id="Rectangle" fill="#142C31" x="114" y="40" width="9" height="9" rx="4.5"></rect>
            <rect id="Rectangle" fill="#142C31" x="134" y="40" width="56" height="9" rx="4.5"></rect>
            <rect id="Rectangle" fill="#142C31" x="578" y="40" width="63" height="9" rx="4.5"></rect>
            <rect id="Rectangle" fill="#142C31" x="1041" y="40" width="28.2045148" height="9" rx="4.5"></rect>
            <rect id="Rectangle" fill="#142C31" transform="translate(1664.102257, 44.500000) scale(-1, 1) translate(-1664.102257, -44.500000) " x="1650" y="40" width="28.2045148" height="9" rx="4.5"></rect>
            <rect id="Rectangle" fill="#142C31" x="1335" y="40" width="91" height="9" rx="4.5"></rect>
            <rect id="Rectangle" fill="#182D32" transform="translate(1989.500000, 44.500000) scale(-1, 1) translate(-1989.500000, -44.500000) " x="1944" y="40" width="91" height="9" rx="4.5"></rect>
            <rect id="Rectangle" fill="#142C31" x="1518" y="40" width="41" height="9" rx="4.5"></rect>
            <rect id="Rectangle" fill="#142C31" transform="translate(2144.000000, 44.500000) scale(-1, 1) translate(-2144.000000, -44.500000) " x="2127" y="40" width="34" height="9" rx="4.5"></rect>
            <rect id="Rectangle" fill="#142C31" x="1152" y="40" width="9" height="9" rx="4.5"></rect>
            <rect id="Rectangle" fill="#142C31" transform="translate(1765.500000, 44.500000) scale(-1, 1) translate(-1765.500000, -44.500000) " x="1761" y="40" width="9" height="9" rx="4.5"></rect>
            <rect id="Rectangle" fill="#142C31" x="778" y="40" width="109" height="9" rx="4.5"></rect>
            <rect id="Rectangle" fill="#FF9507" x="299" y="40" width="96" height="9" rx="4.5"></rect>
            <rect id="Rectangle" fill="#E72D2D" x="71.3062668" y="0" width="32.6937332" height="9" rx="4.5"></rect>
            <rect id="Rectangle" fill="#E72D2D" x="1409" y="0" width="65" height="9" rx="4.5"></rect>
            <rect id="Rectangle" fill="#E72D2D" transform="translate(2050.500000, 4.500000) scale(-1, 1) translate(-2050.500000, -4.500000) " x="2018" y="0" width="65" height="9" rx="4.5"></rect>
            <rect id="Rectangle" fill="#E72D2D" x="446" y="0" width="56" height="9" rx="4.5"></rect>
            <rect id="Rectangle" fill="#E72D2D" x="1128" y="0" width="32.6937332" height="9" rx="4.5"></rect>
            <rect id="Rectangle" fill="#FF9507" transform="translate(1753.346867, 4.500000) scale(-1, 1) translate(-1753.346867, -4.500000) " x="1737" y="0" width="32.6937332" height="9" rx="4.5"></rect>
            <rect id="Rectangle" fill="#E72D2D" x="733" y="0" width="25" height="9" rx="4.5"></rect>
            <rect id="Rectangle" fill="#FF9507" transform="translate(142.000000, 24.500000) scale(-1, 1) translate(-142.000000, -24.500000) " x="114" y="20" width="56" height="9" rx="4.5"></rect>
            <rect id="Rectangle" fill="#FF9507" transform="translate(434.653133, 24.500000) scale(-1, 1) translate(-434.653133, -24.500000) " x="418.306267" y="20" width="32.6937332" height="9" rx="4.5"></rect>
            <rect id="Rectangle" fill="#E72D2D" transform="translate(833.500000, 24.500000) scale(-1, 1) translate(-833.500000, -24.500000) " x="821" y="20" width="25" height="9" rx="4.5"></rect>
            <rect id="Rectangle" fill="#E72D2D" transform="translate(634.500000, 24.500000) scale(-1, 1) translate(-634.500000, -24.500000) " x="630" y="20" width="9" height="9" rx="4.5"></rect>
            <rect id="Rectangle" fill="#0696B9" transform="translate(1061.500000, 24.500000) scale(-1, 1) translate(-1061.500000, -24.500000) " x="1057" y="20" width="9" height="9" rx="4.5"></rect>
            <rect id="Rectangle" fill="#182D32" transform="translate(1670.500000, 24.500000) scale(-1, 1) translate(-1670.500000, -24.500000) " x="1666" y="20" width="9" height="9" rx="4.5"></rect>
            <rect id="Rectangle" fill="#E72D2D" x="1010" y="40" width="20" height="9" rx="4.5"></rect>
            <rect id="Rectangle" fill="#E72D2D" transform="translate(1629.000000, 44.500000) scale(-1, 1) translate(-1629.000000, -44.500000) " x="1619" y="40" width="20" height="9" rx="4.5"></rect>
            <rect id="Rectangle" fill="#E72D2D" x="201" y="40" width="20" height="9" rx="4.5"></rect>
            <rect id="Rectangle" fill="#E72D2D" x="898" y="40" width="20" height="9" rx="4.5"></rect>
            <rect id="Rectangle" fill="#E72D2D" x="1233" y="40" width="91" height="9" rx="4.5"></rect>
            <rect id="Rectangle" fill="#0696B9" transform="translate(1887.500000, 44.500000) scale(-1, 1) translate(-1887.500000, -44.500000) " x="1842" y="40" width="91" height="9" rx="4.5"></rect>
            <rect id="Rectangle" fill="#E72D2D" x="1498" y="40" width="9" height="9" rx="4.5"></rect>
            <rect id="Rectangle" fill="#E72D2D" transform="translate(2111.500000, 44.500000) scale(-1, 1) translate(-2111.500000, -44.500000) " x="2107" y="40" width="9" height="9" rx="4.5"></rect>
            <rect id="Rectangle" fill="#182D32" x="467" y="40" width="80" height="9" rx="4.5"></rect>
            <rect id="Rectangle" fill="#E72D2D" x="704" y="40" width="63" height="9" rx="4.5"></rect>
            <rect id="Rectangle" fill="#E72D2D" x="1081" y="40" width="60" height="9" rx="4.5"></rect>
            <rect id="Rectangle" fill="#E72D2D" transform="translate(1720.000000, 44.500000) scale(-1, 1) translate(-1720.000000, -44.500000) " x="1690" y="40" width="60" height="9" rx="4.5"></rect>
        </g>
    </g>
</svg>