<?xml version="1.0" encoding="UTF-8"?>
<svg width="111px" height="75px" viewBox="0 0 111 75" version="1.1" xmlns="http://www.w3.org/2000/svg" xmlns:xlink="http://www.w3.org/1999/xlink">
    <!-- Generator: Sketch 48.2 (47327) - http://www.bohemiancoding.com/sketch -->
    <title>pattern_left_2</title>
    <desc>Created with Sketch.</desc>
    <defs></defs>
    <g id="web5" stroke="none" stroke-width="1" fill="none" fill-rule="evenodd" transform="translate(0.000000, -795.000000)" opacity="0.747678895">
        <g id="pattern_left_2" transform="translate(-233.000000, 765.000000)">
            <rect id="Rectangle" fill="#FF9507" x="178" y="30" width="166" height="14" rx="7"></rect>
            <rect id="Rectangle" fill="#0696B9" x="206" y="91" width="85" height="14" rx="7"></rect>
            <path d="M254.169643,61 C257.941945,61 261,64.1340068 261,68 C261,71.8659932 257.941945,75 254.169643,75 L182.830357,75 C179.058055,75 176,71.8659932 176,68 C176,64.1340068 179.058055,61 182.830357,61 L254.169643,61 Z" id="Rectangle" fill="#182D32"></path>
            <path d="M318.272321,64.5 L318.470546,64.9015709 C319.434651,66.8546939 319.434651,69.1453061 318.470546,71.0984291 L318.272321,71.5 C317.214393,73.643194 315.031538,75 312.641455,75 L284.358545,75 C281.968462,75 279.785607,73.643194 278.727679,71.5 L278.529454,71.0984291 C277.565349,69.1453061 277.565349,66.8546939 278.529454,64.9015709 L278.727679,64.5 C279.785607,62.356806 281.968462,61 284.358545,61 L312.641455,61 C315.031538,61 317.214393,62.356806 318.272321,64.5 Z" id="Rectangle" fill="#E72D2D"></path>
        </g>
    </g>
</svg>