<?xml version="1.0" encoding="UTF-8"?>
<svg width="70px" height="33px" viewBox="0 0 70 33" version="1.1" xmlns="http://www.w3.org/2000/svg" xmlns:xlink="http://www.w3.org/1999/xlink">
    <!-- Generator: Sketch 48.2 (47327) - http://www.bohemiancoding.com/sketch -->
    <title>Penna</title>
    <desc>Created with Sketch.</desc>
    <defs>
        <polygon id="path-1" points="0.396612126 0.448105263 21.4043029 0.448105263 21.4043029 32.1309326 0.396612126 32.1309326"></polygon>
    </defs>
    <g id="web5" stroke="none" stroke-width="1" fill="none" fill-rule="evenodd" transform="translate(-842.000000, -604.000000)">
        <g id="Group-5" transform="translate(411.000000, 557.000000)">
            <g id="Page-1" transform="translate(0.000000, 45.000000)">
                <g id="Penna" transform="translate(430.750000, 2.000000)">
                    <g id="Group-36">
                        <mask id="mask-2" fill="white">
                            <use xlink:href="#path-1"></use>
                        </mask>
                        <g id="Clip-35"></g>
                        <path d="M17.7494231,22.6979211 C17.4026538,21.7131316 17.1231154,20.6988158 16.6949615,19.7487632 C15.8846538,17.9580789 14.9929615,16.2021316 14.1242692,14.4375 C13.8641923,13.9077632 13.6200385,13.3606579 13.2803462,12.8812895 C12.0259615,11.1166579 9.40926923,11.1861316 8.40080769,13.0983947 C7.0615,15.6393947 5.82126923,18.2377105 4.66773077,20.8672895 C3.74242308,22.9740789 4.41296154,25.2371842 6.18573077,26.7221842 C8.48926923,28.6518158 13.0185,28.7768684 15.4051923,26.9253947 C16.7515769,25.8798158 17.5955,24.5372368 17.7494231,22.6979211 M10.1205,6.26739474 C9.53488462,3.68297368 9.74896154,2.21707895 11.2952692,0.447236842 C11.3501154,0.8085 11.4934231,1.18192105 11.4421154,1.52928947 C11.3147308,2.37686842 10.9980385,3.20534211 10.9414231,4.05292105 C10.8317308,5.66123684 11.1201154,5.98081579 12.6752692,6.50360526 C14.3985,7.08197368 15.1415769,8.52876316 15.8510385,9.99986842 C17.2345769,12.8708684 18.5968846,15.7505526 20.0140385,18.6059211 C21.3409615,21.2858684 21.8965,24.0231316 20.8809615,26.9253947 C19.6230385,30.5241316 15.9731154,32.5927105 12.1657308,31.9361842 C11.3908077,31.8024474 10.5291923,31.7399211 9.78080769,31.9240263 C4.82696154,33.1571842 0.524192308,28.6535526 0.400346154,24.3739737 C0.331346154,21.9580263 1.22834615,19.8529737 2.28457692,17.7548684 C3.6805,14.9793947 5.02334615,12.1743947 6.35380769,9.36592105 C7.12342308,7.7385 8.24334615,6.56092105 10.1205,6.26739474" id="Fill-34" fill="#182D32" mask="url(#mask-2)"></path>
                    </g>
                    <path d="M26.4760885,25.285416 L26.4760885,14.6346829 L30.3407831,14.6346829 C32.6839444,14.6346829 34.2967697,15.8366942 34.2967697,17.8907642 L34.2967697,17.9211949 C34.2967697,20.1578488 32.3644224,21.3142141 30.1429838,21.3142141 L27.2672858,21.3142141 L27.2672858,25.285416 L26.4760885,25.285416 Z M27.2672858,20.5838781 L30.1886298,20.5838781 C32.166623,20.5838781 33.5055723,19.5492355 33.5055723,17.9668409 L33.5055723,17.9364102 C33.5055723,16.2475082 32.1970537,15.3650189 30.2799218,15.3650189 L27.2672858,15.3650189 L27.2672858,20.5838781 Z M39.732297,25.468 C37.6934424,25.468 35.9284638,23.8399594 35.9284638,21.4207214 L35.9284638,21.3902908 C35.9284638,19.1384215 37.5108584,17.3430122 39.6105743,17.3430122 C41.7863669,17.3430122 43.1709622,19.1079908 43.1709622,21.4055061 C43.1709622,21.5424441 43.1709622,21.5880901 43.1557469,21.7098128 L36.7196611,21.7098128 C36.8565991,23.64216 38.2411944,24.7680947 39.7627277,24.7680947 C40.964739,24.7680947 41.7863669,24.235558 42.4254109,23.550868 L42.9427323,24.007328 C42.1515349,24.8593867 41.2233996,25.468 39.732297,25.468 Z M36.7196611,21.0403381 L42.3645496,21.0403381 C42.2580423,19.4731588 41.3603376,18.0277022 39.5801437,18.0277022 C38.043395,18.0277022 36.8565991,19.3210055 36.7196611,21.0403381 Z M45.4112697,25.285416 L45.4112697,17.5255962 L46.156821,17.5255962 L46.156821,18.9710528 C46.6741423,18.0581328 47.5414163,17.3430122 48.9564422,17.3430122 C50.9192202,17.3430122 52.0603702,18.6819615 52.0603702,20.5382321 L52.0603702,25.285416 L51.3148189,25.285416 L51.3148189,20.6751701 C51.3148189,19.0775602 50.4171142,18.0277022 48.8499349,18.0277022 C47.3284016,18.0277022 46.156821,19.1840675 46.156821,20.7968928 L46.156821,25.285416 L45.4112697,25.285416 Z M54.8027836,25.285416 L54.8027836,17.5255962 L55.5483349,17.5255962 L55.5483349,18.9710528 C56.0656562,18.0581328 56.9329302,17.3430122 58.3479562,17.3430122 C60.3107341,17.3430122 61.4518841,18.6819615 61.4518841,20.5382321 L61.4518841,25.285416 L60.7063328,25.285416 L60.7063328,20.6751701 C60.7063328,19.0775602 59.8086281,18.0277022 58.2414488,18.0277022 C56.7199155,18.0277022 55.5483349,19.1840675 55.5483349,20.7968928 L55.5483349,25.285416 L54.8027836,25.285416 Z M66.5526741,25.468 C65.1072175,25.468 63.5552535,24.646372 63.5552535,23.0335467 L63.5552535,23.0031161 C63.5552535,21.3902908 64.9398488,20.4773708 66.9482727,20.4773708 C68.0285614,20.4773708 68.7741127,20.6143088 69.519664,20.8121081 L69.519664,20.4773708 C69.519664,18.9101915 68.561098,18.1037788 66.9634881,18.1037788 C66.0201374,18.1037788 65.2441555,18.3624395 64.5290348,18.7276075 L64.2551588,18.0733482 C65.1072175,17.6777495 65.9440608,17.4038735 67.0091341,17.4038735 C68.0589921,17.4038735 68.8958354,17.6929649 69.4588027,18.2559322 C69.976124,18.7732535 70.25,19.4883741 70.25,20.4469401 L70.25,25.285416 L69.519664,25.285416 L69.519664,23.9921127 C68.9871274,24.737664 68.0285614,25.468 66.5526741,25.468 Z M66.5983201,24.7680947 C68.1807147,24.7680947 69.5348794,23.7943134 69.5348794,22.3792874 L69.5348794,21.4967981 C68.88062,21.3294294 68.0133461,21.1468454 66.9026267,21.1468454 C65.2593708,21.1468454 64.3464508,21.8771814 64.3464508,22.9574701 L64.3464508,22.9879007 C64.3464508,24.1138354 65.4115241,24.7680947 66.5983201,24.7680947 Z" fill="#182D32"></path>
                </g>
            </g>
        </g>
    </g>
</svg>